<?xml version="1.0" encoding="utf-8"?>
<!-- Generator: Adobe Illustrator 19.2.1, SVG Export Plug-In . SVG Version: 6.00 Build 0)  -->
<!DOCTYPE svg PUBLIC "-//W3C//DTD SVG 1.1//EN" "http://www.w3.org/Graphics/SVG/1.1/DTD/svg11.dtd">
<svg version="1.1" id="Layer_1" xmlns="http://www.w3.org/2000/svg" xmlns:xlink="http://www.w3.org/1999/xlink" x="0px" y="0px"
	 width="2118px" height="3136px" viewBox="0 0 2118 3136" style="enable-background:new 0 0 2118 3136;" xml:space="preserve">
<style type="text/css">
	.st0{fill:#EBC19C;}
	.st1{fill:#FFFFFF;}
	.st2{fill:#2E3192;}
	.st3{fill:#D3AD8C;}
	.st4{fill:#A7A7A7;}
	.st5{fill:#A1A1A1;}
	.st6{fill:#703B1A;}
	.st7{fill:#A8A8A8;}
	.st8{fill:#21B573;}
	.st9{fill:#599676;}
	.st10{fill:#7B655C;fill-opacity:0.9961;}
	.st11{fill:#6CB68F;}
	.st12{fill:#7C7C7C;}
	.st13{fill:#0454A6;}
	.st14{fill:#024588;}
	.st15{fill:#055EB9;}
	.st16{fill:#0456A9;}
	.st17{fill:#024487;}
	.st18{fill:#C4C4C4;}
	.st19{fill:#7BD6FD;fill-opacity:0.2;}
	.st20{fill:#0352A3;}
	.st21{fill:#044B94;}
	.st22{fill:#014588;}
	.st23{fill:#29A86B;}
	.st24{fill:#076139;}
	.st25{fill:#252525;}
	.st26{fill:#076038;}
	.st27{fill:#25AE6F;}
	.st28{fill:#014367;}
	.st29{fill:#ACACAC;}
	.st30{fill:#014B75;}
	.st31{fill:#013F61;}
	.st32{fill:#014063;}
	.st33{fill:#014062;}
	.st34{fill:#331C05;}
	.st35{fill:#784B1F;}
	.st36{fill:#EBEBEB;}
	.st37{fill:#603913;}
	.st38{fill:#E30086;}
	.st39{fill:#B19E72;}
	.st40{fill:#A09067;}
	.st41{fill:#B99E79;}
	.st42{fill:#C69C6D;}
	.st43{fill:#464646;}
	.st44{fill:#636363;}
	.st45{fill:#D69076;}
	.st46{fill:#E0A788;}
	.st47{fill:#525252;}
	.st48{fill:#C59874;}
	.st49{fill:#CFA27E;}
	.st50{fill:#B58663;}
	.st51{fill:#B98A67;}
	.st52{fill:#A87855;}
	.st53{fill:#A06F4C;}
	.st54{fill:#FAF3F3;}
	.st55{fill:#F1DBDB;}
	.st56{fill:#F5E7E7;}
	.st57{fill:#F1DCDC;}
	.st58{fill:#E9C7C7;}
	.st59{fill:#ECD0D1;}
	.st60{fill:#EABF9A;}
	.st61{fill:#C56D6F;}
	.st62{fill:#B19266;}
	.st63{fill:#F8ADB0;}
	.st64{fill:#BA836B;}
	.st65{fill:#BA7C56;}
	.st66{fill:#CC7864;}
	.st67{fill:#013957;}
	.st68{fill:#01476F;}
	.st69{fill:#014165;}
	.st70{fill:#014266;}
	.st71{fill:#014469;}
	.st72{fill:#959595;}
	.st73{fill:#FFF200;}
	.st74{fill:#7B9CC2;}
	.st75{fill:#900000;}
	.st76{fill:#014368;}
	.st77{fill:#6081A8;}
	.st78{fill:#F78E56;}
	.st79{fill:#014972;}
	.st80{fill:#014064;}
	.st81{fill:#FE8637;}
	.st82{fill:#FEC958;}
	.st83{fill:#FFFAB2;}
	.st84{fill:#8B8B8B;}
	.st85{fill:#474747;}
	.st86{fill:#D6007F;}
	.st87{fill:#534741;}
	.st88{fill:#CCCCCC;}
	.st89{fill:#055330;}
	.st90{fill:none;}
	.st91{fill:#08663C;}
	.st92{fill:#DEDEDE;}
	.st93{fill:#EBC19E;}
	.st94{fill:#999999;}
	.st95{fill:#D3AD8E;}
	.st96{fill:#4F3ECC;}
	.st97{fill:#4047CC;}
	.st98{fill:#FF6600;}
	.st99{fill:#48250E;}
	.st100{fill:#482410;}
	.st101{fill:#D8C380;}
	.st102{fill:#CCB36D;}
	.st103{fill:#3145BA;}
	.st104{fill:#990000;}
	.st105{fill:#FF0000;}
	.st106{fill:#EECAAD;}
	.st107{fill:#F8ACB2;}
	.st108{fill:#F9939D;}
	.st109{fill:#988576;}
	.st110{fill:#965E2E;}
	.st111{fill:#8B7969;}
	.st112{fill:#000204;}
	.st113{fill:#00233A;}
	.st114{fill:#F8A6AD;}
	.st115{fill:#907E6E;}
	.st116{fill:#998675;}
	.st117{opacity:0.5;fill:#FFFFFF;enable-background:new    ;}
	.st118{fill:#FBB9BE;}
	.st119{fill:#FBB9BD;}
	.st120{fill:#A67C52;}
	.st121{fill:#CCFFFF;}
	.st122{fill:#009900;}
	.st123{fill:#764413;}
	.st124{fill:#996633;}
	.st125{fill:#EE8BB6;}
	.st126{fill:#003E85;}
	.st127{fill:#004D8A;}
	.st128{fill:#F2F2F2;}
	.st129{fill:#9D5618;}
	.st130{fill:#E2E2E2;}
	.st131{fill:#B2CBE9;}
	.st132{fill:#9EB0C4;}
	.st133{fill:#F28850;}
	.st134{fill:#DC9E81;}
	.st135{fill:#E3AE8E;}
	.st136{fill:#754C24;}
	.st137{fill:#FFCC00;}
	.st138{fill:#FFE57B;}
	.st139{fill:#9E0B0F;}
	.st140{fill:#363636;}
	.st141{fill:#61A07E;}
	.st142{fill:#8F776D;}
	.st143{fill:#E6E6E6;}
	.st144{fill:#4D4D4D;}
	.st145{fill:#666666;}
	.st146{fill:#A08360;}
	.st147{fill:#937952;}
	.st148{fill:#543E36;}
	.st149{fill:#FFA94B;}
	.st150{fill:#7F6346;}
</style>
<path class="st0" d="M2058,2034h48v75h-48V2034z"/>
<path class="st1" d="M1962,2121h48v120h-48V2121z"/>
<path class="st0" d="M1962,2049h48v60h-48V2049z"/>
<path class="st2" d="M2016,1528h72v24h-72V1528z"/>
<path class="st0" d="M2088,1612h-48v108h48V1612z"/>
<path class="st3" d="M2040,1612h-24v108h24V1612z"/>
<path class="st4" d="M1932,1224v12h-12v36h12v60h72v-60h12v-36h-12v-12H1932z"/>
<path class="st5" d="M1932,1224v12h-12v36h12v60h24v-108"/>
<path class="st1" d="M1980,1224v12h-24v-12h-12v84h48v-84H1980z"/>
<path class="st0" d="M1956,1152h48v60h-48V1152z"/>
<path class="st6" d="M1968,1152h36v12h12v-24h-12v-12h-48v12h-12v60h12v-36h12V1152"/>
<path class="st3" d="M1980,1224v-12h-24v12H1980"/>
<path class="st0" d="M2040,768h48v60h-48V768z"/>
<path class="st6" d="M2052,768h36v12h12v-24h-12v-12h-48v12h-12v60h12v-36h12V768"/>
<path class="st3" d="M2064,864v-36h-24v36H2064"/>
<path class="st0" d="M564,768h48v60h-48V768z"/>
<path class="st6" d="M576,768h36v12h12v-24h-12v-12h-48v12h-12v60h12v-36h12V768"/>
<path class="st3" d="M588,840v-12h-24v12H588"/>
<path class="st1" d="M1080,2916v24h-36v-24h-12v132h60v-132"/>
<path class="st7" d="M1786,1612v-12h-48v12h-12v96h72v-96"/>
<path class="st0" d="M686,2457h48v60h-48V2457z"/>
<path class="st8" d="M792,1612h-72v12h-12v84h12v12h12v-12h60V1612z M1020,1612h-72v12h-24v-12h-72v12h-12v96h12v-12h84v-12h12v12
	h72V1612z M1128,1612h-72v12h-12v84h84V1612z M1944,1612v12h-12v12h-24v-12h-12v-12h-12v12h-12v12h-12v24h24v72h72v-72h24v-24h-12
	v-12h-12v-12H1944 M1944,1648v24h-12v12h-12v12h-12v12h-12v-12h12v-12h12v-12h12v-12h-36v-12H1944 M612,1228v-12h-72v12h-24v-12h-72
	v12h-24v-12h-72v12h-12v72h12v12h72v-12h24v12h72v-12h24v12h72v-12h24v12h72v-96h-72v12H612"/>
<path class="st9" d="M2064,1928h-24v12h24V1928 M2088,1928v-12h-24v12H2088 M2016,1940v12h24v-12H2016z M2088,1904v12h24v-12H2088z"
	/>
<path class="st10" d="M2016,1952v24h24v-12h24v-12h24v-12h24v-24h-24v12h-24v12h-24v12H2016z"/>
<path class="st11" d="M2016,1940h24v-12h24v-12h24v-12h24v-12h-168v12h-24v12h-24v12h-24v12h-24v24h168V1940z"/>
<path class="st12" d="M420,1988h-12v444h12V1988 M624,1988h-12v444h12V1988 M12,1988H0v444h12V1988 M216,1988h-12v444h12V1988
	 M156,1952v12h12v-12H156 M564,1952v12h12v-12H564 M360,1952v12h12v-12H360 M1032,1988h-12v444h12V1988 M828,1988h-12v444h12V1988
	 M768,1952v12h12v-12H768 M1176,1964h12v-12h-12V1964 M984,1964v-12h-12v12H984z"/>
<path class="st13" d="M468,2036h-12v372h12V2036 M60,2024v12H48v372h12v-12h24v-372H60 M276,2024h-12v12h-12v372h12v-12h12V2024z"/>
<path class="st14" d="M456,2012v24h12v360h12v-396h-12v12H456z"/>
<path class="st15" d="M540,2000h-12v372h12V2000 M312,2000v372h12v-372H312 M960,1988v372h12v-372H960 M756,1988h-12v372h12V1988z"
	/>
<path class="st16" d="M132,2000h-24v12H96v372h12v-12h24v-12h24v-372h-24V2000z"/>
<path class="st17" d="M264,2000v12h-12v24h12v-12h12v372h12v-396H264 M132,1964v12h-24v12H84v12H60v12H48v24h12v-12h24v360h12v-372
	h12v-12h24v-12h24v-24H132z"/>
<path class="st18" d="M312,1952v-12h-24v12H312 M264,1952v12h24v-12H264 M240,1976h-24v12h24V1976 M240,1964v12h24v-12H240
	 M204,1904v-12h-24v12H204 M108,1940h24v-12h-24V1940 M108,1952v-12H84v12H108 M156,1904v12h24v-12H156 M132,1916v12h24v-12H132
	 M36,1976H12v12h24V1976 M60,1952v12h24v-12H60 M36,1976h24v-12H36V1976 M612,1892h-24v12h24V1892 M540,1940v-12h-24v12H540
	 M492,1952h24v-12h-24V1952 M564,1904v12h24v-12H564 M540,1916v12h24v-12H540 M444,1976h-24v12h24V1976 M468,1952v12h24v-12H468
	 M444,1976h24v-12h-24V1976 M336,1940v-12h-24v12H336 M336,1916v12h24v-12H336 M384,1916v-12h-24v12H384 M384,1892v12h24v-12H384
	 M648,1988v-12h-24v12H648 M948,1940v-12h-24v12H948 M924,1952v-12h-24v12H924 M876,1952v12h24v-12H876 M876,1976v-12h-24v12H876
	 M852,1976h-24v12h24V1976 M744,1916v12h24v-12H744 M792,1916v-12h-24v12H792 M792,1892v12h24v-12H792 M720,1928v12h24v-12H720
	 M720,1952v-12h-24v12H720 M672,1952v12h24v-12H672 M648,1964v12h24v-12H648 M1200,1904h-24v12h24V1904 M1176,1928v-12h-24v12H1176
	 M1200,1892v12h24v-12H1200 M1056,1976h-24v12h24V1976 M1128,1928v12h24v-12H1128 M1128,1952v-12h-24v12H1128 M1080,1952v12h24v-12
	H1080 M1056,1964v12h24v-12H1056 M996,1904h-24v12h24V1904 M972,1928v-12h-24v12H972 M1020,1904v-12h-24v12H1020z"/>
<path class="st19" d="M36,1964h24v-12h24v-12h24v-12h24v-12h24v-12h24v-12H0v96h12v-12h24V1964 M408,1904v84h12v-12h24v-12h24v-12
	h24v-12h24v-12h24v-12h24v-12h24v-12H408V1904 M384,1904v-12H204v96h12v-12h24v-12h24v-12h24v-12h24v-12h24v-12h24v-12H384
	 M648,1976v-12h24v-12h24v-12h24v-12h24v-12h24v-12h24v-12H612v96h12v-12H648 M996,1904v-12H816v96h12v-12h24v-12h24v-12h24v-12h24
	v-12h24v-12h24v-12H996 M1020,1892v96h12v-12h24v-12h24v-12h24v-12h24v-12h24v-12h24v-12h24v-12H1020z"/>
<path class="st5" d="M60,1976H36v12H12v444h24v-12h12v-408h12v-12h24v-12h24v-12h24v-12h24v-12h12v12h36v-60h-24v12h-24v12h-24v12
	h-24v12H84v12H60V1976 M468,1976h-24v12h-24v444h24v-12h12v-408h12v-12h24v-12h24v-12h24v-12h24v-12h12v12h36v-60h-24v12h-24v12h-24
	v12h-24v12h-24v12h-24V1976 M384,1904v12h-24v12h-24v12h-24v12h-24v12h-24v12h-24v12h-24v444h24v-12h12v-408h12v-12h24v-12h24v-12
	h24v-12h24v-12h12v12h36v-60H384 M672,1964v12h-24v12h-24v444h24v-12h12v-408h12v-12h24v-12h24v-12h24v-12h24v-12h12v12h36v-60h-24
	v12h-24v12h-24v12h-24v12h-24v12H672 M1080,1964v12h-24v12h-24v444h24v-12h12v-408h12v-12h24v-12h24v-12h24v-12h24v-12h12v12h36v-60
	h-24v12h-24v12h-24v12h-24v12h-24v12H1080 M972,1916v12h-24v12h-24v12h-24v12h-24v12h-24v12h-24v444h24v-12h12v-408h12v-12h24v-12
	h24v-12h24v-12h24v-12h12v12h36v-60h-24v12H972 M204,492h-12v24h12V492 M24,492H12v24h12V492 M180,144h12v-24h-12V144 M360,120h-12
	v24h12V120 M540,120h-12v24h12V120 M708,120h-12v24h12V120 M420,492h-12v24h12V492 M612,504v12h12v-12H612 M864,144h12v-24h-12V144
	 M1032,144h12v-24h-12V144 M1476,132v12h12v-12H1476 M1680,144h12v-24h-12V144z"/>
<path class="st20" d="M540,1976h-12v24h12v360h24v-396h-24V1976 M336,1964v12h-24v24h12v372h12v-12h24v-396H336 M744,1964v24h12v372
	h12v-396H744z"/>
<path class="st21" d="M960,1988h12v-24h-12V1988z"/>
<path class="st22" d="M672,2012h-12v396h12V2012z"/>
<path d="M912,1856h-12v36h12V1856 M960,1854h-12v34h12V1854 M672,1820v-12h-36v12H672 M804,1808v12h36v-12H804 M792,1856h-12v36h12
	V1856 M732,1708v12h12v-12H732 M852,1708v12h24v-12H852 M1044,1854v34h12v-34H1044 M984,1816v-12h-24v12H984 M1056,1804v-12h-12v12
	H1056 M1080,1804v-12h-12v12H1080 M1056,1708v12h24v-12H1056 M972,1720v-12h-24v12H972 M228,1852h-12v36h12V1852 M300,1828h-12v36
	h12V1828 M36,1852H24v36h12V1852 M108,1828H96v36h12V1828 M48,1720v-12H24v12H48 M216,1708v12h24v-12H216 M540,1852h-12v36h12V1852
	 M612,1828h-12v36h12V1828 M396,1852h-12v36h12V1852 M468,1828h-12v36h12V1828 M384,1708v12h24v-12H384 M528,1708v12h24v-12H528
	 M612,1116v-24h-12v24H612 M540,1116h12v-24h-12V1116 M288,1092h-12v24h12V1092 M216,1092v24h12v-24H216 M276,744h12v-24h-12V744
	 M216,720v24h12v-24H216 M72,1092v24h12v-24H72 M12,1092v24h12v-24H12 M108,720H96v24h12V720 M48,720H36v24h12V720 M156,300v24h12
	v-24H156 M48,348H36v24h12V348 M204,348v24h12v-24H204 M336,300h-12v24h12V300 M504,276h-12v24h12V276 M384,348h-12v24h12V348
	 M564,348h-12v24h12V348 M660,324h-12v24h12V324 M780,348v24h12v-24H780 M720,348v24h12v-24H720 M2016,1840v48h12v-48H2016
	 M2088,1840h-12v48h12V1840 M1798,1852h-12v24h12V1852 M1738,1852h-12v24h12V1852 M2004,1476h-12v24h12V1476 M1932,1476v24h12v-24
	H1932 M1524,1456h-12v36h12V1456 M1452,1480h-12v36h12V1480 M1464,1348v-12h-24v12H1464 M1164,1432h-12v36h12V1432 M1284,1456h-12
	v36h12V1456 M1092,1456h-12v36h12V1456 M1104,1324v-12h-24v12H1104 M828,1444h-12v36h12V1444 M912,1456h-12v36h12V1456 M960,1432v36
	h12v-36H960 M708,1444h-12v36h12V1444 M768,1480v-36h-12v36H768 M780,1324v-12h-24v12H780 M900,1312v12h24v-12H900 M516,1480v-36
	h-12v36H516 M552,1432h-12v36h12V1432 M600,1468h12v-36h-12V1468 M636,1444v36h12v-36H636 M360,1456h-12v36h12V1456 M420,1456h-12
	v36h12V1456 M444,1444v36h12v-36H444 M468,1324v-12h-24v12H468 M372,1324v-12h-24v12H372 M636,1312v12h24v-12H636 M540,1312v12h24
	v-12H540 M252,1468h-12v24h12V1468 M252,1408v-12h-12v12H252 M24,1424v-12H0v12H24 M156,1408v12h24v-12H156 M108,1472H96v24h12V1472
	 M156,1468h-12v24h12V1468 M1356,1432h-12v36h12V1432 M1296,1324v-12h-24v12H1296 M1812,1432h-12v36h12V1432 M1740,1456h-12v36h12
	V1456 M1752,1324v-12h-24v12H1752 M1644,1432h-12v36h12V1432 M1572,1456h-12v36h12V1456 M1584,1324v-12h-24v12H1584 M1968,1096h-12
	v24h12V1096 M1836,1048v-12h-24v12H1836 M840,1092h-12v24h12V1092 M888,1092v24h12v-24H888 M744,1116v-24h-12v24H744 M684,1092h-12
	v24h12V1092 M1248,1092v24h12v-24H1248 M1200,1092h-12v24h12V1092 M1068,1116v-24h-12v24H1068 M1008,1092h-12v24h12V1092 M456,1116
	v-24h-12v24H456 M384,1092v24h12v-24H384 M504,720h-12v24h12V720 M444,720h-12v24h12V720 M1248,720h-12v24h12V720 M1188,744v-24h-12
	v24H1188 M1116,720h-12v24h12V720 M1044,720v24h12v-24H1044 M984,720h-12v24h12V720 M924,720h-12v24h12V720 M852,720h-12v24h12V720
	 M792,720h-12v24h12V720 M648,744v-24h-12v24H648 M708,720h-12v24h12V720 M948,372h12v-24h-12V372 M888,348v24h12v-24H888 M1260,348
	v24h12v-24H1260 M1200,348v24h12v-24H1200 M1116,348v24h12v-24H1116 M1068,348h-12v24h12V348 M1584,1116v-24h-12v24H1584 M1524,1092
	h-12v24h12V1092 M1428,1092v24h12v-24H1428 M1368,1092v24h12v-24H1368 M1800,1092h-12v24h12V1092 M1740,1092h-12v24h12V1092
	 M1632,1092v24h12v-24H1632 M1692,1092v24h12v-24H1692 M1860,720v24h12v-24H1860 M1812,720h-12v24h12V720 M1668,744v-24h-12v24H1668
	 M1608,720h-12v24h12V720 M1512,744v-24h-12v24H1512 M1452,720h-12v24h12V720 M1368,720v24h12v-24H1368 M1308,720v24h12v-24H1308
	 M1572,348h-12v24h12V348 M1500,372h12v-24h-12V372 M1404,348h-12v24h12V348 M1332,372h12v-24h-12V372 M1704,348v24h12v-24H1704
	 M1764,348v24h12v-24H1764z"/>
<path class="st8" d="M912,1856v-48h-12v48H912 M792,1732h-12v124h12V1732 M924,1732h-12v76h12V1732 M1008,1804h-24v12h24V1804
	 M1128,1732h-12v60h-36v12h48V1732 M1008,1732v72h12v-72H1008 M300,1816h12v-12h-12V1816 M288,1828h12v-12h-12V1828 M96,1816v12h12
	v-12H96 M120,1804h-12v12h12V1804 M132,1780h-12v24h12V1780 M120,1756h-12v24h12V1756 M108,1756v-12H96v12H108 M96,1732H84v12h12
	V1732 M276,1744h12v-12h-12V1744 M288,1756h12v-12h-12V1756 M312,1756h-12v24h12V1756 M324,1804v-24h-12v24H324 M492,1780h-12v24h12
	V1780 M612,1828v-12h-12v12H612 M624,1804h-12v12h12V1804 M456,1816v12h12v-12H456 M480,1804h-12v12h12V1804 M444,1744h12v-12h-12
	V1744 M480,1756h-12v24h12V1756 M468,1756v-12h-12v12H468 M360,1660h-12v24h12V1660 M360,1636v24h12v-24H360 M636,1780h-12v24h12
	V1780 M612,1756v24h12v-24H612 M600,1744v12h12v-12H600 M600,1732h-12v12h12V1732 M504,1636v24h12v-24H504 M576,780h36v24h-36V780z
	 M372,768h-24v36h12v-12h12V768 M204,840v-36h-24v24h12v12H204 M1524,1456v-12h-12v12H1524 M1536,1432h-12v12h12V1432 M1548,1432
	v-24h-12v24H1548 M1536,1384h-12v24h12V1384 M1512,1372v12h12v-12H1512 M1512,1360h-12v12h12V1360 M1152,1420v12h12v-12H1152
	 M1176,1420v-12h-12v12H1176 M984,1384h-12v24h12V1384 M1188,1384h-12v24h12V1384 M1164,1360v24h12v-24H1164 M1164,1360v-12h-12v12
	H1164 M1152,1336h-12v12h12V1336 M828,1408h-12v36h12V1408 M840,1408v-12h-12v12H840 M960,1408v24h12v-24H960 M708,1408h-12v36h12
	V1408 M720,1408v-12h-12v12H720 M708,1336h-12v60h12V1336 M960,1384h12v-48h-12 M828,1336h-12v60h12V1336 M516,1408h-12v36h12V1408
	 M528,1408v-12h-12v12H528 M612,1432v-24h-12v24H612 M420,1336h-12v120h12V1336 M624,1384h-12v24h12V1384 M600,1384h12v-48h-12
	 M516,1336h-12v60h12V1336 M1356,1408v12h12v-12H1356 M1344,1420v12h12v-12H1344 M1380,1384h-12v24h12V1384 M1332,1348h12v-12h-12
	V1348 M1344,1348v12h12v-12H1344 M1368,1360h-12v24h12V1360 M1800,1420v12h12v-12H1800 M1824,1420v-12h-12v12H1824 M1836,1384h-12
	v24h12V1384 M1812,1360v24h12v-24H1812 M1812,1360v-12h-12v12H1812 M1800,1336h-12v12h12V1336 M1632,1420v12h12v-12H1632 M1656,1408
	h-12v12h12V1408 M1668,1384h-12v24h12V1384 M1644,1360v-12h-12v12H1644 M1656,1360h-12v24h12V1360 M1632,1336h-12v12h12V1336
	 M468,768v24h36v-12h-12v-12H468 M1248,564v24h12v-24H1248 M1788,576v-24h-24v12h-12v12H1788 M1404,576h-12v24h12v12h12v-24h-12V576
	 M1572,576v12h-12v24h24v-36H1572 M2004,528v-24h-36v12h12v12"/>
<path class="st23" d="M960,1732h-12v122h12V1732 M864,1732h-12v76h-12v12h24V1732 M1056,1854v-38h-12v38H1056 M1068,1732h-12v84h12
	V1732"/>
<path class="st24" d="M792,1732v-12h-60v24h48v-12H792z"/>
<path class="st25" d="M792,1720v-12h-48v12H792 M876,1708v12h48v-12H876 M1128,1720v-12h-48v12H1128 M1020,1720v-12h-48v12H1020
	 M48,1708v12h48v-12H48 M240,1708v12h48v-12H240 M456,1720v-12h-48v12H456 M552,1708v12h48v-12H552 M1822,1576h-12v24h12v12h12v12
	h12v-24h-12v-12h-12V1576 M1464,1336v12h48v-12H1464 M1152,1324v-12h-48v12H1152 M708,1324v-12h-48v12H708 M924,1312v12h48v-12H924
	 M828,1324v-12h-48v12H828 M372,1312v12h48v-12H372 M516,1324v-12h-48v12H516 M564,1312v12h48v-12H564 M1344,1324v-12h-48v12H1344
	 M1800,1324v-12h-48v12H1800 M1584,1312h48v12h-48V1312z"/>
<path class="st0" d="M792,1708v24h12v-24H792 M936,1732h-12v12h12V1732 M936,1720v-12h-12v12H936 M1044,1744h-12v12h12V1744
	 M1032,1720v12h12v-12H1032 M1140,1732v-12h-12v12H1140 M1140,1756v-12h-12v12H1140 M144,1660v12h12v-12H144 M168,1684v-12h-12v12
	H168 M192,1684h-12v12h12V1684 M324,1696v-24h-12v24H324 M480,1732h-12v12h12V1732 M348,1732h-12v12h12V1732 M336,1696h-12v24h12
	V1696 M612,1720v-12h-12v12H612 M624,1696v-12h-12v12H624 M492,1720v-36h-12v36H492 M648,816v12h12v-12H648 M636,804v-12h-24v12H636
	 M636,804v12h12v-12H636 M600,780v12h12v-12H600 M348,840h-24v12h24V840 M348,840h12v-12h-12V840 M372,828v-36h-12v36H372 M372,468
	v12h24v-12H372 M336,480v12h36v-12H336 M336,492h-12v12h12V492 M288,408v-12h-36v12h-12v48h48V408 M120,864v12h12v-12H120 M168,864
	v-12h-36v12H168 M180,840h-12v12h12V840 M192,828h-12v12h12V828 M108,408v-12H72v12H60v48h48V408 M168,480v-12h-24v12H168 M180,420
	h-12v48h12V420 M168,420v-12h-12v12H168 M144,84v12h12V84H144 M144,60v12h12V60H144 M96,36V24H72v12H60v48h48V36H96 M132,48V36h-12
	v12H132 M144,48h-12v12h12V48 M168,84V72h-12v12H168 M252,84V36h-12V24h-36v60H252 M312,48h-12v12h12V48 M288,48h12V36h-12V48
	 M324,96V84h-12v12H324 M324,72V60h-12v12H324 M336,72h-12v12h12V72 M432,36V24h-24v12h-12v48h48V36H432 M480,48h-12v12h12V48
	 M456,36v12h12V36H456 M492,96V84h-12v12H492 M492,72V60h-12v12H492 M504,84V72h-12v12H504 M624,36h-12V24h-24v12h-12v48h48V36
	 M660,84v12h12V84H660 M684,72h-12v12h12V72 M672,72V60h-12v12H672 M660,48h-12v12h12V48 M648,48V36h-12v12H648 M780,36V24h-24v12
	h-12v48h48V36H780 M840,72v12h12V72H840 M828,84v12h12V84H828 M840,72V60h-12v12H840 M828,48h-12v12h12V48 M816,48V36h-12v12H816
	 M2016,1672h-12v84h12V1672 M2040,1552h48v48h-48V1552z M1726,1672h-12v72h12V1672 M1810,1672h-12v72h12V1672 M1616,1612h-12v132h12
	V1612 M1688,1840h-12v24h12V1840 M1628,1864v-24h-12v24H1628 M1640,1600h-12v12h12V1600 M1700,1612h-12v132h12V1612 M1676,1600h-12
	v12h12V1600"/>
<path class="st3" d="M1664,1588h-24v12h24V1588"/>
<path class="st0" d="M2016,1272h-12v96h12V1272 M1536,1144v36h12v-36H1536 M1536,1120v12h12v-12H1536 M1068,1288h-12v12h12V1288
	 M1020,1264v12h12v-12H1020 M1044,1276h-12v12h12V1276 M1236,1240v-12h-24v12H1236 M1260,1228v-12h-12v12H1260 M744,1348h-12v12h12
	V1348 M744,1312h-12v24h12V1312 M720,1300v12h12v-12H720 M876,1300h-12v24h12V1300 M888,1336h-12v12h12V1336 M864,1288h-12v12h12
	V1288 M432,1348h-12v12h12V1348 M420,1336h12v-36h-12 M336,1264h-12v96h12V1264 M612,1360h12v-12h-12V1360 M624,1300h-12v36h12V1300
	 M516,1348v12h12v-12H516 M528,1336v-36h-12v36H528 M132,1264h-12v84h12V1264 M240,1348v-48h-12v60h12V1348 M228,1264h-12v36h12
	V1264 M1416,1204h-12v12h12V1204 M1428,1204v-12h-12v12H1428 M1416,1168v12h12v-12H1416 M1884,1240v-12h-24v12H1884 M1896,1228v-12
	h-12v12H1896 M1908,1228h12v-12h-12V1228 M1704,1216v-12h-12v12H1704 M1716,1180h-12v24h12V1180 M1716,1168v-12h-12v12H1716
	 M2100,936h-12v48h12V936 M2016,936h-12v48h12V936 M1980,888h-12v72h12V888 M780,828v12h24v-12H780 M780,804v-12h-24v12H780
	 M804,816v-12h-24v12H804 M816,828v-12h-12v12H816 M960,840h-24v12h24V840 M972,840v-12h-12v12H972 M972,792v36h12v-36H972
	 M1116,876v-12h-12v12H1116 M1176,840h-24v12h24V840 M1152,864v-12h-36v12H1152 M504,828h12v-12h-12V828 M492,840h12v-12h-12V840
	 M528,816v-24h-12v24H528 M516,780h-12v12h12V780 M504,768h-12v12h12V768 M600,540h-12v12h12V540 M564,516h-24v12h24V516 M564,528
	v12h24v-12H564 M504,456v-60h-36v12h-12v48H504 M1128,564v-12h-12v12H1128 M984,540h24v-12h-24V540 M1020,528v-12h-12v12H1020
	 M1020,516h12v-12h-12V516 M1116,408v-12h-36v12h-12v48h48V408 M1272,564h-12v12h12V564 M1284,564v-12h-12v12H1284 M1152,552v-12
	h-24v12H1152 M1152,516v24h12v-24H1152 M1248,408v-12h-36v12h-12v48h48V408 M732,552v36h12v-36H732 M756,516h-12v36h12V516 M708,408
	v-12h-36v12h-12v48h48V408 M852,564h12v-12h-12V564 M888,540h-24v12h24V540 M888,516v24h12v-24H888 M852,408v-12h-36v12h-12v48h48
	V408 M948,396v12h-12v48h48v-60H948 M960,36h-12V24h-24v12h-12v48h48V36 M1008,72v12h12V72H1008 M996,84v12h12V84H996 M1008,60h-12
	v12h12V60 M996,48h-12v12h12V48 M972,48h12V36h-12V48 M1128,36h-12V24h-24v12h-12v48h48V36 M1176,72v12h12V72H1176 M1164,60v12h12
	V60H1164 M1164,84v12h12V84H1164 M1164,48h-12v12h12V48 M1140,36v12h12V36H1140 M1272,36V24h-36v12h-12v48h48V36 M1344,912v-12h-24
	v12H1344 M1356,912h-12v12h12V912 M1320,888h-24v12h24V888 M1488,948v24h12v-24H1488 M1488,924h-12v24h12V924 M1476,888h-12v36h12
	V888 M1608,888h-12v36h12V888 M1620,984v-60h-12v60H1620 M1716,888h-12v96h12V888 M1812,888h-12v96h12V888 M1752,540h-12v12h12V540
	 M1752,564h12v-12h-12V564 M1728,516h-24v12h24V516 M1740,528h-12v12h12V528 M1668,408v-12h-36v12h-12v48h48V408 M1872,456v-60h-36
	v12h-12v48H1872 M1428,516h-12v60h12V516 M1404,588h12v-12h-12V588 M1296,552v-36h-12v36H1296 M1380,408v-12h-36v12h-12v48h48V408
	 M1548,540h12v-24h-12V540 M1572,540h-12v48h12V540 M1512,408v-12h-36v12h-12v48h48V408 M1452,204v24h12v-24H1452 M1452,180h-12v24
	h12V180 M1440,144h-12v36h12V144 M1296,180v-36h-12v36H1296 M1308,180h-12v60h12V180 M1404,36V24h-36v12h-12v48h48V36 M1572,36V24
	h-36v12h-12v48h48V36 M1632,156v-12h-24v12H1632 M1656,168v12h12v-12H1656 M1632,168h24v-12h-24V168 M1776,36V24h-36v12h-12v48h48
	V36 M1884,96h-24v12h24V96 M1824,132v-12h-12v12H1824 M1860,120v-12h-36v12H1860 M1956,516v-12h-48v12H1956 M1980,516h-24v12h24"/>
<path class="st26" d="M852,1720v12h12v12h48v-12h12v-12H852 M1128,1732v-12h-72v12h12v12h48v-12H1128 M1020,1732v-12h-72v12h12v12
	h48v-12H1020 M24,1720v12h12v12h48v-12h12v-12H24 M216,1720v12h12v12h48v-12h12v-12H216 M384,1732h12v12h48v-12h12v-12h-72V1732
	 M528,1732h12v12h48v-12h12v-12h-72V1732 M1512,1360v-12h-72v12h12v12h48v-12H1512 M1152,1336v-12h-72v12h12v12h48v-12H1152
	 M900,1324v12h12v12h48v-12h12v-12H900 M828,1336v-12h-72v12h12v12h48v-12H828 M348,1336h12v12h48v-12h12v-12h-72V1336 M636,1324v12
	h12v12h48v-12h12v-12H636 M516,1336v-12h-72v12h12v12h48v-12H516 M540,1324v12h12v12h48v-12h12v-12H540 M1344,1336v-12h-72v12h12v12
	h48v-12H1344 M1800,1336v-12h-72v12h12v12h48v-12H1800 M1560,1336h12v12h48v-12h12v-12h-72V1336z"/>
<path class="st6" d="M240,384h-12v60h12v-36h12v-12h36v12h12v-24h-12v-12h-48V384 M60,384H48v60h12v-36h12v-12h36v12h12v-24h-12v-12
	H60V384 M120,12h-12V0H60v12H48v60h12V36h12V24h48V12 M264,12h-12V0h-48v12h-12v24h12V24h36v12h12v36h12V12 M456,24V12h-12V0h-48v12
	h-12v60h12V36h12V24H456 M636,24V12h-12V0h-48v12h-12v60h12V36h12V24H636 M804,24V12h-12V0h-48v12h-12v60h12V36h12V24H804 M456,384
	h-12v60h12v-36h12v-12h36v12h12v-24h-12v-12h-48V384 M804,372v12h-12v60h12v-36h12v-12h36v12h12v-24h-12v-12H804 M660,372v12h-12v60
	h12v-36h12v-12h36v12h12v-24h-12v-12H660 M1200,372v12h-12v60h12v-36h12v-12h36v12h12v-24h-12v-12H1200 M1068,384h-12v60h12v-36h12
	v-12h36v12h12v-24h-12v-12h-48V384 M996,384h-12v-12h-48v12h-12v60h12v-36h12v-12h36v12h12V384 M972,24V12h-12V0h-48v12h-12v60h12
	V36h12V24H972 M1140,24V12h-12V0h-48v12h-12v60h12V36h12V24H1140 M1272,12V0h-48v12h-12v60h12V36h12V24h36v12h12V12H1272 M1500,372
	h-36v12h-12v60h12v-36h12v-12h36v12h12v-24h-12v-12H1500 M1344,372h-12v12h-12v60h12v-36h12v-12h36v12h12v-24h-12v-12H1344 M1416,12
	h-12V0h-48v12h-12v60h12V36h12V24h36v12h12V12 M1584,36V12h-12V0h-48v12h-12v60h12V36h12V24h36v12H1584 M1824,384h-12v60h12v-36h12
	v-12h36v12h12v-24h-12v-12h-48V384 M1680,384h-12v-12h-48v12h-12v60h12v-36h12v-12h36v12h12V384 M1788,36V12h-12V0h-48v12h-12v60h12
	V36h12V24h36v12"/>
<path class="st8" d="M900,1228h-12v72h12v12h72v-96h-72 M756,1228h-12v72h12v12h72v-96h-72 M216,1624h-12v60h12v24h72v-96h-72
	 M24,1624H12v60h12v24h72v-96H24 M1272,1228h-12v72h12v12h72v-96h-72 M1560,1228h-12v72h12v12h72v-96h-72 M1080,1228h-12v72h12v12
	h72v-96h-72 M1728,1216v12h-12v72h12v12h72v-96 M1440,1252h-12v72h12v12h72v-96h-72 M456,1612h-72v12h-12v12h12v72h72V1612z
	 M600,1612h-72v12h-12v12h12v72h72V1612"/>
<path class="st23" d="M492,1684v-24h-12v24H492z"/>
<path class="st27" d="M504,1684v-24h-12v24H504z"/>
<path class="st28" d="M540,948v144h12V972h48v120h12V948H540 M216,948v144h12V972h48v120h12V948H216 M288,576h-72v144h12V600h48v120
	h12V576 M12,948v144h12V972h48v120h12V948H12 M108,576H36v144h12V600h48v120h12V576 M672,948v144h12V972h48v120h12V948H672 M828,948
	v144h12V972h48v120h12V948H828 M996,948v144h12V972h48v120h12V948H996 M1188,948v144h12V972h48v120h12V948H1188 M384,948v144h12V972
	h48v120h12V948H384 M432,576v144h12V600h48v120h12V576H432 M1116,576h-72v144h12V600h48v120h12V576 M1248,588v-12h-72v144h12V600h48
	v120h12V588 M912,720h12V600h48v120h12V576h-72V720 M780,720h12V600h48v120h12V576h-72V720 M648,600h48v120h12V576h-72v144h12V600
	 M1200,204v144h12V228h48v120h12V204H1200 M1068,228h48v120h12V204h-72v144h12V228 M1368,948v144h12V972h48v120h12V948H1368
	 M1512,948v144h12V972h48v120h12V948H1512 M1644,972h48v120h12V948h-72v144h12V972 M1800,984v-36h-72v144h12V972h48v120h12V984
	 M1872,576h-72v144h12V600h48v120h12V576 M1596,720h12V600h48v120h12V576h-72V720 M1440,720h12V600h48v120h12V576h-72V720 M1380,576
	h-72v144h12V600h48v120h12V576 M1500,204v144h12V228h48v120h12V204H1500 M1332,204v144h12V228h48v120h12V204H1332 M1704,204v144h12
	V228h48v120h12V204H1704z"/>
<path class="st7" d="M612,864h12v-12h-12v-12h-72v12h-12v36h12v60h72V864 M324,864v-12h-36v-12h-72v12h-12v36h12v60h72v-84H324
	 M288,492h12v-12h-12v-12h-72v12h-12v12h12v84h72V492 M96,852H84v-12H12v12H0v36h12v60h72v-84h12V852 M108,468H36v12H24v12h12v84h72
	v-84h36v-12h-36V468 M108,96H36v12H24v12h12v84h72v-84h12v-12h-12V96 M276,96h-72v12h-12v12h12v84h72v-84h12v-12h-12V96 M444,96h-72
	v12h-12v12h12v84h72v-84h12v-12h-12V96 M600,96h-48v12h-12v12h12v84h72v-84h12v-12h-12V96H600 M768,96h-48v12h-12v12h12v84h72v-84
	h12v-12h-12V96H768 M228,1228h-12v-12h-72v12h-24v-12H48v12H36v36h12v60h72v-60h24v60h72v-60h12V1228 M300,1216h-48v12h-12v36h12v60
	h72v-60h12v-36h-12v-12H300 M1920,840h-24v12h-12v36h12v48h12v12h60v-60h12v-36h-12v-12H1920 M756,852h-12v-12h-72v12h-12v36h12v60
	h72v-84h12V852 M936,864v-12h-36v-12h-72v12h-12v36h12v60h72v-84H936 M1068,864h12v-12h-12v-12h-72v12h-12v36h12v60h72V864
	 M1260,864h12v-12h-12v-12h-72v12h-12v36h12v60h72V864 M432,840h-48v12h-12v36h12v60h72v-84h12v-12h-12v-12H432 M504,492h12v-12h-12
	v-12h-72v12h-12v12h12v84h72V492 M1092,468h-48v12h-12v36h12v60h72v-84h12v-12h-12v-12H1092 M1248,468h-72v12h-12v36h12v60h72v-84
	h12v-12h-12V468 M684,468h-48v12h-12v24h12v72h72v-84h12v-12h-12v-12H684 M852,492h12v-12h-12v-12h-72v12h-12v36h12v60h72V492
	 M912,480h-12v36h12v60h72v-84h12v-12h-12v-12h-72V480 M972,120v-12h-12V96h-72v12h-12v12h12v84h72v-84H972 M1140,120v-12h-12V96
	h-72v12h-12v12h12v84h72v-84H1140 M1248,96h-48v12h-12v36h12v60h72v-60h12v-36h-12V96H1248 M1416,840h-48v12h-12v36h12v60h72v-84h12
	v-12h-12v-12H1416 M1596,852h-12v-12h-72v12h-12v36h12v60h72v-60h12V852 M1800,888h12v-36h-12v-12h-72v12h-24v-12h-72v12h-12v36h12
	v60h72v-60h24v60h72V888 M1872,492h12v-12h-12v-12h-72v12h-12v36h12v60h72V492 M1380,492h12v-12h-12v-12h-72v12h-12v36h12v60h72V492
	 M1488,468h-48v12h-12v36h12v60h72v-84h12v-12h-12v-12H1488 M1596,468v12h-12v36h12v60h72v-84h12v-12h-12v-12H1596 M1404,96h-72v12
	h-12v36h12v60h72v-84h12v-12h-12V96 M1572,96h-72v12h-12v24h12v72h72v-84h12v-12h-12V96 M1788,120v-12h-12V96h-72v12h-12v12h12v84
	h72v-84"/>
<path class="st29" d="M636,840h-12v12h12V840 M636,828v12h12v-12H636 M300,492v12h24v-12H300 M96,864v12h24v-12H96 M144,96h-24v12
	h24V96 M312,96h-24v12h24V96 M480,96h-24v12h24V96 M660,108V96h-24v12H660 M828,108V96h-24v12H828 M780,840h-24v12h24V840 M1080,864
	v12h24v-12H1080 M1284,864h-12v12h12V864 M492,852v-12h-24v12H492 M540,504h-12v12h12V504 M528,492h-12v12h12V492 M1020,492h-24v12
	h24V492 M1140,504v-12h-12v12H1140 M1284,516v-12h-12v12H1284 M1140,504v12h12v-12H1140 M1272,492h-12v12h12V492 M720,504h12v-12
	h-12V504 M732,504v12h12v-12H732 M876,504v12h12v-12H876 M876,492h-12v12h12V492 M996,96h-24v12h24V96 M1164,96h-24v12h24V96
	 M1296,888v-12h-12v12H1296 M1464,888v-24h-12v24H1464 M1692,504v12h12v-12H1692 M1692,492h-12v12h12V492 M1896,516h12v-12h-12V516
	 M1896,492h-12v12h12V492 M1404,504v12h12v-12H1404 M1404,492h-12v12h12V492 M1536,504v12h12v-12H1536 M1536,492h-12v12h12V492
	 M1428,144v-24h-12v24H1428 M1596,132v12h12v-12H1596 M1596,120h-12v12h12V120 M1788,132h24v-12h-24V132z"/>
<path class="st30" d="M156,252v48h12v-48H156 M132,240v-12h-24v12H132 M156,240h-24v12h24V240 M276,240h24v-12h-24V240 M336,252h-12
	v48h12V252 M324,252v-12h-24v12H324 M504,264h-12v12h12V264 M516,240h-12v24h12V240 M468,228v12h36v-12H468 M624,228v12h12v-12H624
	 M660,300h-12v24h12V300 M672,276h-12v24h12V276 M660,276v-24h-12v24H660 M648,252v-12h-12v12H648 M804,264v36h12v-36H804 M792,336
	h-12v12h12V336 M804,300h-12v36h12V300 M792,240v24h12v-24H792 M1798,1744v-36h-72v144h12v-120h48v120h12V1744 M204,1408h-24v12h24
	V1408 M96,1412v60h12v-60H96 M960,300h-12v48h12V300 M972,300v-36h-12v36H972z"/>
<path class="st31" d="M108,228v-24H36v144h12V228H108 M276,228v-24h-72v144h12V228H276 M624,228v-24h-72v144h12V228H624z"/>
<path class="st32" d="M468,216h-24v-12h-72v144h12V228h84V216z"/>
<path class="st33" d="M732,228h48v12h12v-36h-72v144h12V228z"/>
<path class="st34" d="M1908,1876h-24v12h24V1876 M1860,1744v12h24v-12H1860 M1956,1888v-12h-24v12H1956 M1956,1756h24v-12h-24V1756
	 M1980,1552h-12v12h12V1552z"/>
<path class="st35" d="M1884,1744v-72h-24v72H1884 M1980,1672h-24v72h24V1672z"/>
<path class="st36" d="M1884,1744h24v-12h-24V1744z"/>
<path class="st37" d="M1956,1756v-12h-72v132h24v-120h24v120h24V1756 M1920,1516h-12v-12h-12v12h-12v60h12v36h12v12h24v-12h12v-48
	h24v-24h-12v-24h-12v-12h-12v12H1920z"/>
<path class="st38" d="M2016,1720v120h12v-96h48v96h12v-120H2016z"/>
<path class="st39" d="M2004,1660v12h12v-12H2004 M2016,1648v-12h-12v12H2016z"/>
<path class="st40" d="M2100,1672v-12h-12v12H2100 M2100,1636h-12v12h12V1636z"/>
<path class="st41" d="M2100,1648h-12v12h12V1648z"/>
<path class="st42" d="M1980,1576v-12h-36v24h24v-12H1980 M1944,1504v12h12v-12H1944 M1920,1504h-12v12h12V1504z"/>
<path class="st43" d="M1810,1864v12h-12v12h60v-12h-12v-12H1810"/>
<path class="st44" d="M1834,1612h-12v252h12V1612z M1688,1744v-36h-48v24h36v108h12V1744z"/>
<path class="st45" d="M1676,1864v12h12v-12H1676z"/>
<path class="st46" d="M1628,1876v-12h-12v12H1628z"/>
<path class="st47" d="M1640,1732v-24h-24v132h12v-108H1640z"/>
<path class="st48" d="M1640,1600v12h12v-12H1640z"/>
<path class="st49" d="M1652,1600v12h12v-12H1652z"/>
<path class="st50" d="M1640,1624v-12h-12v12H1640z"/>
<path class="st1" d="M1676,1600v24h-48v-24h-12v108h72v-108"/>
<path class="st51" d="M1676,1612h-12v12h12V1612z"/>
<path class="st52" d="M1664,1612h-12v12h12V1612z"/>
<path class="st53" d="M1652,1612h-12v12h12V1612z"/>
<path class="st54" d="M1640,1636v-12h-12v12H1640z"/>
<path class="st55" d="M1676,1624h-12v12h12V1624z"/>
<path class="st56" d="M1664,1624h-12v12h12V1624z"/>
<path class="st55" d="M1652,1624h-12v12h12V1624z"/>
<path class="st56" d="M1676,1648h-12v12h12V1648z"/>
<path class="st57" d="M1664,1648h-12v12h12V1648z"/>
<path class="st56" d="M1664,1660h-12v12h12V1660z"/>
<path class="st54" d="M1652,1672h-12v12h12V1672z"/>
<path class="st58" d="M1652,1648h-12v12h12V1648z"/>
<path class="st59" d="M1664,1636h-12v12h12V1636z"/>
<path class="st54" d="M1652,1636h-12v12h12V1636z"/>
<path class="st60" d="M1688,1516h-48v72h48V1516"/>
<path class="st61" d="M1980,1284h-12v12h12V1284z"/>
<path class="st62" d="M1968,1284h12v-12h-12V1284z"/>
<path class="st63" d="M1956,1284h-12v12h12V1284z"/>
<path class="st3" d="M1932,1272h-12v96h12V1272z"/>
<path class="st64" d="M1968,1272h-12v12h12V1272z"/>
<path class="st61" d="M1968,1260h-12v12h12V1260z"/>
<path class="st64" d="M1968,1260h12v-12h-12V1260z"/>
<path class="st65" d="M1980,1212v-12h-12v12H1980z"/>
<path class="st66" d="M1992,1188v12h12v-12H1992z"/>
<path class="st67" d="M1932,1368v108h12v-108H1932 M252,1468v-48h-12v48H252 M1896,1048v-12h-60v12H1896 M1908,984h-12v52h12V984z"
	/>
<path class="st68" d="M1932,1332v24h60v120h12v-144H1932z"/>
<path class="st69" d="M144,1324v144h12v-120h48v60h12v-84H144z"/>
<path class="st70" d="M48,1324v88H24v12h36v-76h48v64h12v-88H48z"/>
<path class="st71" d="M252,1324v96h12v-12h60v-84H252 M264,1348h48v48h-48V1348z"/>
<path class="st72" d="M2088,1116v-24h-12v24H2088 M2016,1092v24h12v-24H2016z"/>
<path class="st73" d="M1992,1080h-12v12h12V1080 M1992,1008h-12v12h12V1008z"/>
<path class="st74" d="M2088,924v12h12v-12H2088 M2016,936v-12h-12v12H2016z"/>
<path class="st75" d="M2016,984h-12v12h-12v120h12v-12h12V984z"/>
<path class="st76" d="M2016,948v144h12V972h48v120h12V948H2016z"/>
<path class="st77" d="M2016,852h-12v72h12V852 M2100,852h-12v72h12V852z"/>
<path class="st78" d="M2028,828v12h-12v120h24V828H2028 M2088,840h-12v-12h-12v132h24V840z"/>
<path class="st79" d="M1908,948v24h48v124h12V948H1908z"/>
<path class="st80" d="M948,228v36h12v-60h-72v144h12V228H948z"/>
<path class="st81" d="M2076,360h12v-12h-12V360 M2064,360v12h12v-12H2064 M1896,264h-12v48h12V264 M1992,360h12v-12h-12V360
	 M2016,336h-12v12h12V336 M2016,312h-12v12h12V312 M2004,324h-12v-12h-24v12h12v12h24V324 M1992,240h-12v12h12V240 M1944,264v48h-12
	v24h-12v-12h-12v-12h-12v24h12v12h12v12h12v-12h12v-24h12v-12h12v-48H1944 M2088,288h-12v12h-12v12h-12v-12h-12v24h12v12h12v-12h12
	v-12h12V288 M2100,264h-12v24h12V264 M2040,276v-12h-24v48h12v-12h12V276 M1908,228v-12h-12v12H1908 M1920,228h-12v12h12V228
	 M1932,216v-12h-24v12H1932 M1908,192h-12v12h12V192 M1896,144h-12v48h12V144 M1920,132h12v-12h-12V132 M2076,216v-12h-12v12H2076
	 M2088,180h-12v24h12V180 M2100,144h-12v36h12V144 M2016,156v24h12v12h12v12h24v-12h-12v-12h-12v-36h-24V156 M2016,180h-12v12h-24
	v12h36V180 M1980,192v-12h-12v12H1980 M1968,144h-24v48h-12v12h24v-24h12V144 M1884,12v36h12V12H1884 M1944,72V36h-12v24h-12v12h-12
	V48h-12v36h12v12h12V84h12V72H1944 M1968,12h-24v24h12v24h12V12 M2016,48h-12v24h-12v12h-12V60h-12v36h12v12h12V96h12V84h12V48
	 M2040,24V12h-24v36h12v24h12v24h12v12h12v12h12V96h-12V84h-12V60h-12V24 M2100,12h-12v48h-12v36h12V72h12V12z"/>
<path class="st82" d="M1908,276h-12v36h12v12h12v12h12v-24h-12v-12h-12V276 M1944,312v-36h-12v36H1944 M2064,300h-12v12h12V300
	 M1980,276h-12v36h24v12h12v-12h12v-36h-12v24h-24V276 M2076,288h-12v12h12V288 M2076,276v12h12v-12H2076 M2052,276h-12v24h12V276
	 M1896,156v36h12v-36H1896 M2076,156v24h12v-24H2076 M2052,180v12h12v12h12v-24H2052 M2040,180h12v-24h-12V180 M2016,156h-12v24h12
	V156 M1944,192v-36h-12v24h-12v12h-12v12h24v-12H1944 M1980,156h-12v24h12v12h24v-12h-12v-12h-12V156 M1932,48h-24v24h12V60h12V48
	 M1908,48V24h-12v24H1908 M1980,24h-12v36h12V24 M1944,36V24h-12v12H1944 M2016,48V24h-12v24H2016 M2004,48h-12v12h-12v24h12V72h12
	V48 M2064,72h-12v12h12v12h12V60h-12V72 M2052,24h-12v36h12V24 M2088,24h-12v36h12V24z"/>
<path class="st83" d="M1932,276h-24v24h12v12h12V276 M2004,276h-24v24h24V276 M2076,288v-12h-24v24h12v-12H2076 M1932,180v-24h-24
	v36h12v-12H1932 M2052,156v24h24v-24H2052 M1980,156v12h12v12h12v-24H1980 M1932,48V24h-24v24H1932 M1992,48h12V24h-24v36h12V48
	 M2052,72h12V60h12V24h-24V72z"/>
<path class="st84" d="M1944,276v-12h-48v12H1944 M1968,276h48v-12h-48V276 M2040,276h48v-12h-48V276 M2040,156h48v-12h-48V156
	 M1944,156v-12h-48v12H1944 M1968,156h48v-12h-48V156 M1944,24V12h-48v12H1944 M2016,24V12h-48v12H2016 M2076,24h12V12h-48v12H2076z
	"/>
<path class="st85" d="M1944,264v-12h-48v12H1944 M1968,252v12h48v-12H1968 M2040,252v12h48v-12H2040 M2088,144v-12h-48v12H2088
	 M1944,144v-12h-48v12H1944 M2016,144v-12h-48v12H2016 M1944,12V0h-48v12H1944 M2016,12V0h-48v12H2016 M2088,12V0h-48v12H2088z"/>
<path class="st5" d="M24,108h12v12H24V108z M36,96h24v108H36V96z M24,480h12v12H24V480z M36,468h24v108H36V468z M0,852h12v36H0V852z
	 M12,840h24v108H12V840z M36,1228h12v36H36V1228z M48,1216h24v108H48V1216z M132,1228h12v36h-12V1228z M144,1216h24v108h-24V1216z
	 M240,1228h12v36h-12V1228z M252,1216h24v108h-24V1216z M204,852h12v36h-12V852z M216,840h24v108h-24V840z M372,852h12v36h-12V852z
	 M384,840h24v108h-24V840z M528,852h12v36h-12V852z M540,840h24v108h-24V840z M660,852h12v36h-12V852z M672,840h24v108h-24V840z
	 M816,852h12v36h-12V852z M828,840h24v108h-24V840z M984,852h12v36h-12V852z M996,840h24v108h-24V840z M1176,852h12v36h-12V852z
	 M1188,840h24v108h-24V840z M1356,852h12v36h-12V852z M1368,840h24v108h-24V840z M1500,852h12v36h-12V852z M1512,840h24v108h-24V840
	z M1620,852h12v36h-12V852z M1632,840h24v108h-24V840z M1716,852h12v36h-12V852z M1728,840h24v108h-24V840z"/>
<path class="st23" d="M1728,1216h24v96h-24V1216z M1560,1216h24v96h-24V1216z M1440,1240h24v96h-24V1240z M1272,1216h24v96h-24V1216
	z M1080,1216h24v96h-24V1216z M900,1216h24v96h-24V1216z M756,1216h24v96h-24V1216z M636,1216h24v96h-24V1216z M540,1216h24v96h-24
	V1216z M444,1216h24v96h-24V1216z M348,1216h24v96h-24V1216z M24,1612h24v96H24V1612z M216,1612h24v96h-24V1612z M384,1612h24v96
	h-24V1612z M528,1612h24v96h-24V1612z M720,1612h24v96h-24V1612z M852,1612h24v96h-24V1612z M948,1612h24v96h-24V1612z M1056,1612
	h24v96h-24V1612z M924,1624h12v84h-12V1624z M1020,1624h12v72h-12V1624z M1032,1696h12v24h-12V1696z M1128,1624h12v96h-12V1624z
	 M792,1624h12v84h-12V1624z"/>
<path class="st5" d="M1884,852h12v36h-12V852z M1920,948h-12v-12h-12v-96h24 M204,480h12v12h-12V480z M216,468h24v108h-24V468z
	 M420,480h12v12h-12V480z M432,468h24v108h-24V468z M624,480h12v24h-12V480z M636,468h24v108h-24V468z M768,480h12v36h-12V480z
	 M780,468h24v108h-24V468z M900,480h12v36h-12V480z M912,468h24v108h-24V468z M1032,480h12v36h-12V480z M1044,468h24v108h-24V468z
	 M1164,480h12v36h-12V480z M1176,468h24v108h-24V468z M1296,480h12v36h-12V480z M1308,468h24v108h-24V468z M1428,480h12v36h-12V480z
	 M1440,468h24v108h-24V468z M1584,480h12v36h-12V480z M1596,468h24v108h-24V468z M1788,480h12v36h-12V480z M1800,468h24v108h-24V468
	z M12,144h12v-24H12V144 M192,108h12v12h-12V108z M204,96h24v108h-24V96z M360,108h12v12h-12V108z M372,96h24v108h-24V96z M540,108
	h12v12h-12V108z M552,96h24v108h-24V96z M708,108h12v12h-12V108z M720,96h24v108h-24V96z M876,108h12v12h-12V108z M888,96h24v108
	h-24V96z M1044,108h12v12h-12V108z M1056,96h24v108h-24V96z M1188,108h12v36h-12V108z M1200,96h24v108h-24V96z M1320,108h12v36h-12
	V108z M1332,96h24v108h-24V96z M1488,108h12v24h-12V108z M1500,96h24v108h-24V96z M1692,108h12v12h-12V108z M1704,96h24v108h-24V96z
	"/>
<path class="st1" d="M720,1732v12h12v-12H720 M936,1732v-12h-12v12H936 M948,1708h-12v12h12V1708 M852,1732h-12v12h12V1732
	 M1044,1732h-12v12h12V1732 M1044,1720v12h12v-12H1044 M1100,1648h12v24h-12V1648z M1088,1648h12v-12h-24v48h24v-12h-12 M1140,1744
	v-12h-12v12H1140 M12,1732H0v12h12V1732 M204,1732h-12v12h12V1732 M180,1672h-12v12h12V1672 M468,1720v12h12v-12H468 M336,1720v12
	h12v-12H336 M372,1732v-12h-12v12H372 M624,1696h-12v12h12V1696 M504,1708h12v-12h-12V1708 M1884,1672v-12h-24v12H1884 M1908,1624
	v-12h-12v12H1908 M1932,1624h-24v12h24V1624 M1956,1744v-12h-48v12H1956 M1956,1672h24v-12h-24V1672 M1908,1708v-12h-12v12H1908
	 M1920,1684h-12v12h12V1684 M1932,1672h-12v12h12V1672 M1944,1672v-24h-48v12h36v12H1944 M1944,1624v-12h-12v12H1944 M1440,1360h-12
	v12h12V1360 M1536,1132v12h12v-12H1536 M1044,1276v12h12v-12H1044 M1080,1336h-12v12h12V1336 M1272,1336h-12v12h12V1336 M1236,1216
	v12h12v-12H1236 M732,1336h24v12h-24V1336z M888,1336v12h12v-12H888 M888,1324h-12v12h12V1324 M444,1336h-24v12h24V1336 M348,1336
	h-12v12h12V1336 M612,1336h24v12h-24V1336z M540,1336h-24v12h24V1336 M1428,1180h-12v12h12V1180 M1728,1336h-12v12h12V1336
	 M1908,1228v-12h-12v12H1908 M1560,1336h-12v12h12V1336 M1704,1168h12v12h-12V1168z"/>
<path class="st67" d="M36,348V204h24v24H48v120 M204,348V204h24v24h-12v120 M372,348V204h24v24h-12v120 M552,348V204h24v24h-12v120
	 M720,348V204h24v24h-12v120 M888,348V204h24v24h-12v120 M1056,348V204h24v24h-12v120 M1200,348V204h24v24h-12v120 M1332,348V204h24
	v24h-12v120 M1500,348V204h24v24h-12v120 M1704,348V204h24v24h-12v120 M1800,720V576h24v24h-12v120 M1596,720V576h24v24h-12v120
	 M1440,720V576h24v24h-12v120 M1308,720V576h24v24h-12v120 M1176,720V576h24v24h-12v120 M1044,720V576h24v24h-12v120 M912,720V576
	h24v24h-12v120 M780,720V576h24v24h-12v120 M636,720V576h24v24h-12v120 M432,720V576h24v24h-12v120 M216,720V576h24v24h-12v120
	 M36,720V576h24v24H48v120 M12,1092V948h24v24H24v120 M24,1424v-12h24v-88h24v24H60v76 M216,1092V948h24v24h-12v120 M144,1468v-144
	h24v24h-12v120 M252,1420v-96h24v24h-12v72 M384,1092V948h24v24h-12v120 M540,1092V948h24v24h-12v120 M672,1092V948h24v24h-12v120
	 M828,1092V948h24v24h-12v120 M996,1092V948h24v24h-12v120 M1188,1092V948h24v24h-12v120 M1368,1092V948h24v24h-12v120 M1512,1092
	V948h24v24h-12v120 M1632,1092V948h24v24h-12v120 M1728,1092V948h24v24h-12v120 M1932,1476v-144h24v24h-12v120 M1726,1852v-144h24
	v24h-12v120"/>
<path class="st86" d="M2016,1840v-120h24v24h-12v96"/>
<path class="st67" d="M1908,948h12v24h-12V948z M2016,1092h12V972h12v-12h-24"/>
<path class="st29" d="M2016,1356v12h24v-4h-12v-4h12v-4H2016 M1932,1356v12h24v-12H1932"/>
<path class="st3" d="M720,1720v12h12v-12H720 M720,1744v12h12v-12H720 M948,1720h-12v12h12V1720 M948,1696h-12v12h12V1696 M840,1744
	v12h12v-12H840 M852,1732v-12h-12v12H852 M1044,1732v12h12v-12H1044 M1044,1708v12h12v-12H1044 M12,1744H0v12h12V1744 M12,1696H0v36
	h12V1696 M192,1744v12h12v-12H192 M204,1732v-36h-12v36H204 M360,1732v12h12v-12H360 M360,1684h-12v36h12V1684 M516,1696v-12h-12v12
	H516 M528,1720v-12h-12v12H528 M540,888h-12v96h12V888 M216,888h-12v96h12V888 M204,540h-12v24h12V540 M216,576v-12h-12v12H216
	 M180,516v24h12v-24H180 M264,468v-12h-24v12H264 M12,888H0v96h12V888 M24,564v12h12v-12H24 M24,540H12v24h12V540 M12,516H0v24h12
	V516 M84,468v-12H60v12H84 M36,192H24v12h12V192 M12,168v24h12v-24H12 M12,144H0v24h12V144 M84,96V84H60v12H84 M108,36h12V24H96v12
	H108 M204,192h-12v12h12V192 M180,192h12v-24h-12V192 M180,144h-12v24h12V144 M252,96V84h-24v12H252 M288,36V24h-24v12H288 M372,192
	h-12v12h12V192 M348,168v24h12v-24H348 M348,144h-12v24h12V144 M420,96V84h-24v12H420 M456,36V24h-24v12H456 M528,144h-12v24h12V144
	 M552,192h-12v12h12V192 M540,192v-24h-12v24H540 M576,96h24V84h-24V96 M612,36h24V24h-24V36 M696,144h-12v24h12V144 M720,192h-12
	v12h12V192 M708,192v-24h-12v24H708 M768,84h-24v12h24V84 M792,36h12V24h-24v12H792 M2100,1672h-12v84h12V1672 M2040,1600v12h24v-12
	H2040 M1428,1372v12h12v-12H1428 M1440,1336v-12h-12v36h12V1336 M1080,1360v-12h-12v12H1080 M1080,1324v-24h-12v36h12V1324
	 M1272,1348h-12v12h12V1348 M1272,1300h-12v36h12V1300 M756,1348h-12v12h12V1348 M888,1348v12h12v-12H888 M888,1324v12h12v-36h-12
	V1324 M444,1348h-12v12h12V1348 M444,1300h-12v36h12V1300 M348,1348h-12v12h12V1348 M348,1336v-36h-12v36H348 M636,1360v-12h-12v12
	H636 M612,1336h24v-36h-12v36h12 M528,1360h12v-12h-12V1360 M540,1300h-12v36h12V1300 M48,1264H36v96h12V1264 M144,1264h-12v72h12
	V1264 M240,1300v48h12v-84h-12V1300 M1716,1348v12h12v-12H1716 M1728,1324v-24h-12v36h12V1324 M1560,1360v-12h-12v12H1560
	 M1560,1324v-24h-12v36h12V1324 M1908,948v-12h-12v48h12V948 M1896,888h-12v48h12V888 M672,888h-12v96h12V888 M828,888h-12v96h12
	V888 M996,888h-12v96h12V888 M1188,888h-12v96h12V888 M384,888h-12v96h12V888 M420,576v-24h-12v24H420 M420,588h12v-12h-12V588
	 M420,528v-12h-12v12H420 M396,528v24h12v-24H396 M456,456v12h24v-12H456 M636,588h-12v24h12V588 M624,588v-24h-12v24H624 M600,528
	v36h12v-36H600 M624,516h-12v12h12V516 M1044,516h-12v96h12V516 M1092,456h-24v12h24V456 M1164,516v96h12v-96H1164 M1224,468v-12
	h-24v12H1224 M780,576v-12h-12v48h12V576 M768,528h-12v36h12V528 M780,528v-12h-12v12H780 M684,456h-24v12h24V456 M900,516v96h12
	v-96H900 M828,468v-12h-24v12H828 M960,456h-24v12h24V456 M888,192h-12v12h12V192 M876,168h-12v24h12V168 M864,144h-12v24h12V144
	 M912,84v12h24V84H912 M1056,192h-12v12h12V192 M1032,168v24h12v-24H1032 M1032,144h-12v24h12V144 M972,36V24h-24v12H972 M1080,84
	v12h24V84H1080 M1200,144h-12v96h12V144 M1140,36V24h-24v12H1140 M1224,96h24V84h-24V96 M1368,888h-12v96h12V888 M1512,888h-12v96
	h12V888 M1632,888h-12v96h12V888 M1728,888h-12v96h12V888 M1620,468h24v-12h-24V468 M1800,516h-12v96h12V516 M1824,468h24v-12h-24
	V468 M1440,516h-12v96h12V516 M1308,576v-60h-12v96h12V576 M1332,456v12h24v-12H1332 M1596,516h-12v96h12V516 M1464,468h24v-12h-24
	V468 M1500,216h-12v24h12V216 M1332,192h-12v48h12V192 M1308,180v12h12v-36h-12V180 M1332,144h-12v12h12V144 M1380,96V84h-24v12
	H1380 M1488,192h-12v24h12V192 M1464,156v36h12v-36H1464 M1488,144h-12v12h12V144 M1548,96V84h-24v12H1548 M1704,216v-12h-12v12
	H1704 M1692,180h-12v24h12V180 M1680,180v-24h-12v24H1680 M1692,144h-12v12h12V144 M1728,84h24v12h-24V84z M744,1300h12v36h-12V1300
	z"/>
<path class="st8" d="M0,1684v12h12v-12H0"/>
<path class="st23" d="M36,1732H24v120h12V1732 M144,1660h-12v12h12V1660 M120,1648v12h12v-12H120 M108,1636v12h12v-12H108 M96,1624
	v12h12v-12H96"/>
<path class="st8" d="M204,1696v-12h-12v12H204"/>
<path class="st23" d="M312,1636h-12v24h12V1636 M324,1672v-12h-12v12H324 M300,1636v-12h-12v12H300 M228,1732h-12v120h12V1732
	 M480,1660v-24h-12v24H480 M468,1636v-12h-12v12H468 M396,1732h-12v120h12V1732 M636,1660h-12v24h12V1660 M624,1660v-24h-12v24H624
	 M612,1636v-12h-12v12H612 M540,1732h-12v120h12V1732 M720,1808h-48v12h48V1808 M732,1756h-12v52h12V1756 M420,1228h12v72h-12V1228z
	 M516,1228h12v72h-12V1228z M612,1228h12v72h-12V1228z M708,1228h12v48h-12V1228z M732,1276h-12v24h12V1276 M864,1264h-12v24h12
	V1264 M840,1240v24h12v-24H840 M828,1228v12h12v-12H828 M1008,1264v12h12v-12H1008 M1008,1252h-12v12h12V1252 M996,1252v-12h-12v12
	H996 M984,1240v-12h-12v12H984 M1164,1240v12h36v-12H1164 M1212,1228h-12v12h12V1228 M1164,1228h-12v12h12V1228 M1380,1216v12h24
	v-12H1380 M1344,1228v12h36v-12H1344 M1536,1204h-12v48h12V1204 M1524,1252h-12v12h12V1252 M1548,1180h-12v24h12V1180 M1668,1216v12
	h24v-12H1668 M1632,1228v12h36v-12H1632 M1812,1240v12h36v-12H1812 M1860,1228h-12v12h12V1228 M1812,1228h-12v12h12V1228 M360,1336
	h-12v120h12V1336 M444,1444h12v-36h-12V1444 M456,1408h12v-12h-12V1408 M444,1396h12v-60h-12 M540,1432h12v-24h-12V1432 M564,1384
	h-12v24h12V1384 M552,1336h-12v48h12V1336 M660,1396h-12v12h12V1396 M636,1408v36h12v-36H636 M636,1396h12v-60h-12 M768,1408h-12v36
	h12V1408 M780,1408v-12h-12v12H780 M768,1336h-12v60h12V1336 M912,1336h-12v120h12V1336 M1092,1336h-12v120h12V1336 M1284,1336h-12
	v120h12V1336 M1452,1360h-12v120h12V1360 M1560,1336h12v120h-12V1336z M1740,1336h-12v120h12V1336"/>
<path class="st5" d="M1726,1600v12h-12v36h12v60h24v-108"/>
<path class="st1" d="M1822,1624h-120v48h120V1624"/>
<path class="st87" d="M1714,1612v12h12v-12H1714 M1738,1600h-12v12h12V1600 M1750,1600v-12h-12v12H1750 M1798,1612v12h12v-12H1798
	 M1798,1600h-12v12h12V1600 M1786,1600v-12h-12v12H1786z"/>
<path class="st88" d="M1764,1646h8v-8h-16v24h8V1646 M1722,1646v-8h-12v24h12v-8h4v-8H1722 M1736,1646h-4v8h-4v8h8v-8h8v8h8v-8h-4
	v-8h-4v-8h-8V1646 M1784,1662v-24h-8v24H1784 M1796,1646v-8h-8v24h8v-8h4v-8H1796 M1804,1638v16h-4v8h12v-24H1804z"/>
<path class="st89" d="M372,1348v-24h-24v12h12v12 M48,1744v-24H24v12h12v12 M240,1744v-24h-24v12h12v12 M408,1744v-24h-24v12h12v12
	 M552,1744v-24h-24v12h12v12 M732,1720h12v24h-12V1720z M876,1744v-24h-24v12h12v12 M972,1744v-24h-24v12h12v12 M1080,1744v-24h-24
	v12h12v12 M468,1348v-24h-24v12h12v12 M564,1348v-24h-24v12h12v12 M660,1348v-24h-24v12h12v12 M780,1348v-24h-24v12h12v12 M924,1348
	v-24h-24v12h12v12 M1104,1348v-24h-24v12h12v12 M1296,1348v-24h-24v12h12v12 M1464,1372v-24h-24v12h12v12 M1584,1348v-24h-24v12h12
	v12 M1752,1348v-24h-24v12h12v12"/>
<path class="st90" d="M132,2553h12v12h-12V2553z M144,2565h12v12h-12V2565z"/>
<path class="st8" d="M1310,2131h12v12h-12V2131z M1262,2119h48v12h-48V2119z M1322,2119h48v12h-48V2119z M289,2661h12v36h-12V2661z
	 M1683,2157h12v12h-12V2157z M1695,2169h12v12h-12V2169z M1478,2288v-48h-72v12h-12v36 M1731,2157h12v24h-12V2157z M1707,2181h24v12
	h-24V2181z M1442,2324h12v12h-12V2324z M1442,2288h12v12h-12V2288z M1430,2300h12v24h-12V2300z M1711,1929h16v4h-16V1929z M301,2637
	h12v24h-12V2637z M1683,1913h28v12h-28V1913z M1727,1925h8v4h-8V1925z M1743,2145h12v12h-12V2145z M1635,1925h36v4h-36V1925z
	 M313,2577h12v12h-12V2577z M373,2565h12v12h-12V2565z M277,2697h12v12h-12V2697z M144,2649h12v60h-12V2649z M132,2709h12v24h-12
	V2709z M84,2565h12v24H84V2565z M1262,1986h108v12h-108V1986z M96,2541h12v24H96V2541z M156,2613h12v-72h-12v-12h-48v96h48
	 M120,2733h12v12h-12V2733z M1490,2083h-84v36h72v36h12 M1490,1998h48v12h-48V1998z M1286,2312h36v12h-36V2312z M1538,1986h24v12
	h-24V1986z M1490,2155h24v12h-24V2155z M1406,1950h84v36h-84V1950z M1262,2300h24v12h-24V2300z M1839,2073h-24v12h-24v12h-12v12h12
	v12h12v12h12v-12h12v-12h12v-12h24v-12h-24 M1322,2300h36v12h-36V2300z M72,2589h12v24H72V2589z"/>
<path class="st0" d="M1490,1902h48v60h-48V1902z"/>
<path class="st8" d="M1502,1914h36v24h-36V1914z"/>
<path class="st6" d="M1502,1902h36v12h12v-24h-12v-12h-48v12h-12v60h12v-36h12V1902"/>
<path class="st23" d="M1286,1962h24v-12h-24V1962 M1310,1962v12h60v-12H1310 M1502,1986h36v-12h-36V1986 M1478,1986v12h12v-12H1478
	 M1442,1998v-12h-36v12H1442"/>
<path class="st0" d="M1610,1986v12h12v-12H1610 M1598,1998v-12h-36v12H1598"/>
<path class="st3" d="M1538,1974v12h36v-12H1538 M1490,1962v12h12v-12H1490 M1598,1974h-12v12h12V1974"/>
<path class="st91" d="M1394,1950h-12v12h-12v24h24V1950"/>
<path class="st89" d="M1370,1986v12h24v-12H1370"/>
<path d="M1394,1986v12h12v-12H1394 M1286,1962v-12h-36v12H1286 M1262,1998v-12h-36v12H1262"/>
<path class="st1" d="M1442,1986v12h36v-12H1442 M1598,1986v12h12v-12H1598"/>
<path class="st25" d="M1406,1950h-12v36h12V1950"/>
<path class="st92" d="M1586,1986v-12h-12v12H1586"/>
<path class="st0" d="M1562,2167v-12h-12v12H1562 M1514,2155v12h24v-12H1514 M1490,2035h48v60h-48V2035z"/>
<path class="st8" d="M1502,2047h36v24h-36V2047z"/>
<path class="st6" d="M1502,2035h36v12h12v-24h-12v-12h-48v12h-12v60h12v-36h12V2035"/>
<path class="st3" d="M1502,2107v-12h-12v12H1502 M1550,2119v-12h-12v12H1550 M1574,2131v-12h-24v12H1574 M1598,2119h-12v12h12V2119"
	/>
<path class="st92" d="M1586,2131v-12h-12v12H1586"/>
<path class="st1" d="M1478,2131v-12h-36v12H1478 M1550,2167v-12h-12v12H1550"/>
<path d="M1262,2131v-12h-36v12H1262 M1286,2107v-12h-36v12H1286 M1406,2131v-12h-12v12H1406"/>
<path class="st89" d="M1370,2131h24v-12h-24V2131"/>
<path class="st91" d="M1394,2083h-12v12h-12v24h24V2083"/>
<path class="st23" d="M1370,2107v-12h-84v12H1370 M1406,2131h36v-12h-36V2131 M1538,2119v-12h-36v12H1538"/>
<path class="st25" d="M1406,2083h-12v36h12V2083"/>
<path class="st0" d="M1478,2192h48v60h-48V2192z"/>
<path class="st8" d="M1490,2204h36v24h-36V2204z"/>
<path class="st6" d="M1490,2192h36v12h12v-24h-12v-12h-48v12h-12v60h12v-36h12V2192"/>
<path class="st23" d="M1274,2276h84v-12h-84V2276 M1526,2288v-12h-24v12H1526 M1406,2288h-12v12h12V2288 M1430,2288v-12h-24v12H1430
	 M1502,2264h-12v12h12V2264"/>
<path class="st1" d="M1490,2360h-12v12h12V2360 M1454,2288v-12h-24v12H1454 M1466,2276v12h12v-12H1466"/>
<path class="st0" d="M1502,2360h-12v12h12V2360 M1466,2348v12h12v-12H1466 M1466,2336h-12v12h12V2336"/>
<path d="M1226,2300v12h36v-12H1226 M1274,2264h-36v12h36V2264 M1394,2300v-12h-12v12H1394"/>
<path class="st25" d="M1394,2288v-36h-12v36H1394"/>
<path class="st91" d="M1370,2252v12h-12v24h24v-36H1370"/>
<path class="st89" d="M1358,2300h24v-12h-24V2300"/>
<path class="st3" d="M1538,2288v-12h-12v12H1538 M1478,2252v12h12v-12H1478 M1550,2300v-12h-12v12H1550 M1574,2300v-12h-12v12H1574"
	/>
<path class="st92" d="M1562,2288h-12v12h12V2288"/>
<path class="st0" d="M1839,2013h48v60h-48V2013z"/>
<path class="st8" d="M1851,2025h36v24h-36V2025z"/>
<path class="st6" d="M1851,2013h36v12h12v-24h-12v-12h-48v12h-12v60h12v-36h12V2013"/>
<path class="st3" d="M1923,2145h-12v12h12V2145 M1887,2145v-12h-12v12H1887 M1899,2145h-12v12h12V2145 M1863,2073h-24v12h24V2073"/>
<path class="st92" d="M1899,2145v12h12v-12H1899"/>
<path class="st23" d="M1863,2121v12h12v-12H1863 M1815,2133v24h12v-24H1815 M1851,2121h12v-12h-12V2121 M1827,2109v24h12v-24H1827
	 M1779,2109v24h24v-12h-12v-12H1779 M1731,2145v-12h-24v12H1731 M1743,2121h-12v12h12V2121 M1671,2157h36v-12h-36V2157 M1659,2133
	v12h12v-12H1659"/>
<path class="st0" d="M1815,2205v-12h-12v12H1815 M1815,2169h-12v12h12V2169 M1815,2157v12h12v-12H1815"/>
<path class="st1" d="M1815,2193v-12h-12v12H1815 M1815,2133h12v-12h-12V2133 M1839,2109h12v-12h-12V2109"/>
<path d="M1779,2133v12h12v-12H1779 M1659,2157v12h24v-12H1659 M1659,2145v-12h-36v12H1659"/>
<path class="st89" d="M1755,2157h24v-12h-24V2157"/>
<path class="st91" d="M1755,2109v12h-12v24h36v-12h-12v-24H1755"/>
<path class="st25" d="M1779,2109h-12v24h12V2109"/>
<path class="st0" d="M120,2457h48v60h-48V2457z"/>
<path class="st8" d="M132,2469h36v24h-36V2469z"/>
<path class="st6" d="M132,2457h36v12h12v-24h-12v-12h-48v12h-12v60h12v-36h12V2457"/>
<path class="st3" d="M84,2673h12v-12H84V2673 M96,2625H84v24h12V2625 M72,2613v12h12v-12H72 M144,2529v-12h-24v12H144"/>
<path class="st1" d="M204,2649v-12h-12v12H204 M96,2649H84v12h12V2649"/>
<path class="st23" d="M48,2733v12h24v-12H48 M48,2721H36v12h12V2721 M84,2709H72v24h12V2709 M96,2673H84v36h12V2673 M120,2529h-12
	v36H96v48H84v12h24v-12h12V2529 M180,2577v-36h-12v36H180 M192,2577h-12v12h12V2577"/>
<path d="M132,2745h-12v36h12V2745 M36,2721H0v12h36V2721 M108,2625H96v12h12V2625"/>
<path class="st25" d="M108,2637h48v-12h-48V2637"/>
<path class="st89" d="M108,2661v-24H96v24H108"/>
<path class="st91" d="M108,2637v24h36v-12h12v-12H108"/>
<path class="st0" d="M192,2661h12v-12h-12V2661 M204,2625h-12v12h12V2625 M192,2589h-12v36h12V2589"/>
<path class="st1" d="M144,2589v-12h-12v-12h-12v36h12v-12H144 M144,2565v-12h-12v12H144 M144,2577h12v-12h-12V2577"/>
<path class="st0" d="M349,2457h48v60h-48V2457z"/>
<path class="st8" d="M361,2469h36v24h-36V2469z"/>
<path class="st6" d="M361,2457h36v12h12v-24h-12v-12h-48v12h-12v60h12v-36h12V2457"/>
<path class="st8" d="M337,2601h12v-24h12v-12h12v-12h12v-12h-12v-12h-36v12h-12v12h12"/>
<path class="st1" d="M325,2625h-12v12h12V2625 M373,2553v12h12v-12H373 M361,2577h-12v12h24v-24h-12V2577"/>
<path d="M229,2685v-12h-24v12H229 M277,2709v12h12v-12H277 M277,2721h-12v24h12V2721 M229,2661v12h12v-12H229 M301,2601h12v-12h-12
	V2601"/>
<path class="st25" d="M337,2601h-12v12h12V2601"/>
<path class="st91" d="M325,2613v12h12v-12H325 M313,2601h-12v24h12V2601"/>
<path class="st89" d="M313,2625h-12v12h12V2625 M301,2589h-12v36h12v-24"/>
<path class="st0" d="M325,2649v-12h-12v12H325 M325,2625v-24h-12v24H325"/>
<path class="st3" d="M421,2625h-12v12h12V2625 M397,2601h-12v12h12V2601 M373,2589v12h12v-12H373 M349,2517v12h24v-12H349"/>
<path class="st23" d="M277,2625h12v-24h-12V2625 M277,2625h-12v24h12V2625 M373,2577v12h12v-12H373 M313,2577h-12v12h12V2577
	 M337,2553h-12v12h-12v12h12v12h-12v12h24V2553"/>
<path class="st92" d="M397,2613v12h12v-12H397"/>
<path class="st23" d="M265,2661v-12h-24v12H265"/>
<path class="st1" d="M1707,1929v-4h-12v4H1707 M1747,1925h4v4h-4V1925z"/>
<path class="st0" d="M1711,1897h16v20h-16V1897z M1747,1929v-4h-12v4H1747 M1751,1925h4v4h-4V1925z"/>
<path class="st3" d="M1739,1925v-4h-12v4H1739 M1715,1917h-4v4h4V1917 M1743,1921h4v4h-4V1921z"/>
<path class="st92" d="M1739,1921h4v4h-4V1921z"/>
<path class="st6" d="M1727,1893v-4h-16v4h-4v20h4v-12h4v-4h12v4h4v-8"/>
<path class="st23" d="M1643,1917h8v-4h-8V1917 M1683,1925v4h12v-4H1683 M1671,1921v-4h-20v4H1671 M1711,1925h-4v4h4V1925 M1715,1921
	h12v4h-12V1921z"/>
<path d="M1635,1929v-4h-12v4H1635 M1643,1913h-12v4h12V1913 M1679,1925h4v4h-4V1925z"/>
<path class="st89" d="M1671,1925h8v4h-8V1925z"/>
<path class="st91" d="M1679,1913h-4v4h-4v8h8"/>
<path class="st25" d="M1679,1913h4v12h-4V1913z"/>
<path class="st8" d="M1715,1901h12v8h-12V1901z M1651,1974h16v4h-16V1974z M1667,1958h28v12h-28V1958z M1643,1970h8v4h-8V1970z
	 M1707,1970h36v4h-36V1970z"/>
<path class="st1" d="M1671,1974h12v-4h-12V1974 M1627,1970h4v4h-4V1970z"/>
<path class="st0" d="M1651,1942h16v20h-16V1942z M1631,1974h12v-4h-12V1974 M1623,1970h4v4h-4V1970z"/>
<path class="st3" d="M1639,1970h12v-4h-12V1970 M1663,1962v4h4v-4H1663 M1631,1966h4v4h-4V1966z"/>
<path class="st92" d="M1635,1966h4v4h-4V1966z"/>
<path class="st6" d="M1647,1938v8h4v-4h12v4h4v12h4v-20h-4v-4h-16v4"/>
<path class="st23" d="M1735,1962v-4h-8v4H1735 M1695,1970h-12v4h12V1970 M1707,1966h20v-4h-20V1966 M1667,1970v4h4v-4H1667
	 M1651,1966h12v4h-12V1966z"/>
<path d="M1743,1974h12v-4h-12V1974 M1735,1958v4h12v-4H1735 M1695,1970h4v4h-4V1970z"/>
<path class="st89" d="M1699,1970h8v4h-8V1970z"/>
<path class="st91" d="M1699,1970h8v-8h-4v-4h-4"/>
<path class="st25" d="M1695,1958h4v12h-4V1958z"/>
<path class="st8" d="M1651,1946h12v8h-12V1946z"/>
<path class="st91" d="M951,2493v12h-12v36h24v-48"/>
<path id="Layer0_37_FILL_5_" class="st25" d="M975,2541h-12v-48h12V2541z"/>
<path id="Layer0_60_FILL_5_" d="M831,2517h-36v12h36V2517z"/>
<path id="Layer0_65_FILL_5_" class="st8" d="M879,2517h-48v12h48V2517z"/>
<path id="Layer0_70_FILL_5_" class="st8" d="M939,2529h-60v12h60V2529z"/>
<path id="Layer0_72_FILL_5_" d="M855,2505h-36v12h36V2505z"/>
<path id="Layer0_80_FILL_5_" class="st23" d="M939,2505h-84v12h84V2505z"/>
<path class="st8" d="M975,2493h84v48h-84V2493z"/>
<path id="Layer0_29_FILL_5_" class="st23" d="M975,2541h84v-12h-84V2541z"/>
<path class="st1" d="M1011,2529h36v12h-36V2529z"/>
<path id="Layer0_40_FILL_5_" d="M975,2541h-12v-12h12V2541z"/>
<path id="Layer0_35_FILL_5_" class="st89" d="M963,2541h-24v-12h24V2541z"/>
<path id="Layer0_86_FILL_3_" class="st8" d="M1059,2517h12v-12h-12V2517z"/>
<path id="Layer0_90_FILL_3_" class="st23" d="M1047,2541h12v-12h-12V2541z"/>
<path id="Layer0_158_FILL_3_" class="st8" d="M1059,2529h-12v12h12V2529z"/>
<path class="st91" d="M578,2662v12h-12v36h24v-48"/>
<path id="Layer0_37_FILL_4_" class="st25" d="M602,2710h-12v-48h12V2710z"/>
<path id="Layer0_60_FILL_4_" d="M458,2686h-36v12h36V2686z"/>
<path id="Layer0_65_FILL_4_" class="st8" d="M506,2686h-48v12h48V2686z"/>
<path id="Layer0_70_FILL_4_" class="st8" d="M566,2698h-60v12h60V2698z"/>
<path id="Layer0_72_FILL_4_" d="M482,2674h-36v12h36V2674z"/>
<path id="Layer0_80_FILL_4_" class="st23" d="M566,2674h-84v12h84V2674z"/>
<path class="st8" d="M602,2662h84v48h-84V2662z"/>
<path id="Layer0_29_FILL_4_" class="st23" d="M602,2710h84v-12h-84V2710z"/>
<path class="st1" d="M638,2698h36v12h-36V2698z"/>
<path id="Layer0_40_FILL_4_" d="M602,2710h-12v-12h12V2710z"/>
<path id="Layer0_35_FILL_4_" class="st89" d="M590,2710h-24v-12h24V2710z"/>
<path id="Layer0_1_FILL_1_" class="st8" d="M686,2529h12v-12h-12V2529z"/>
<path class="st91" d="M578,2505v12h-12v36h24v-48"/>
<path id="Layer0_37_FILL_3_" class="st25" d="M602,2553h-12v-48h12V2553z"/>
<path id="Layer0_41_MEMBER_19_FILL_1_" class="st0" d="M686,2457v12h12v-12H686z"/>
<path class="st6" d="M734,2445v-12h-48v12h-12v60h12v-36h12v-12h36v12h12v-24"/>
<path id="Layer0_42_FILL_1_" class="st3" d="M686,2529h12v-12h-12V2529z"/>
<path id="Layer0_46_FILL_1_" class="st8" d="M686,2589h24v-12h-24V2589z"/>
<path id="Layer0_49_FILL_1_" class="st0" d="M710,2589h48v-12h-48V2589z"/>
<path id="Layer0_55_FILL_1_" class="st3" d="M734,2541h12v-12h-12V2541z"/>
<path id="Layer0_56_FILL_1_" class="st3" d="M746,2529h48v-12h-48V2529z"/>
<path id="Layer0_58_FILL_1_" class="st23" d="M698,2541h36v-12h-36V2541z"/>
<path id="Layer0_60_FILL_3_" d="M458,2529h-36v12h36V2529z"/>
<path id="Layer0_65_FILL_3_" class="st8" d="M506,2529h-48v12h48V2529z"/>
<path id="Layer0_70_FILL_3_" class="st8" d="M566,2541h-60v12h60V2541z"/>
<path id="Layer0_72_FILL_3_" d="M482,2517h-36v12h36V2517z"/>
<path id="Layer0_80_FILL_3_" class="st23" d="M566,2517h-84v12h84V2517z"/>
<path class="st8" d="M602,2505h84v48h-84V2505z"/>
<path id="Layer0_86_FILL_2_" class="st8" d="M686,2686h12v-12h-12V2686z"/>
<path id="Layer0_90_FILL_2_" class="st23" d="M674,2710h12v-12h-12V2710z"/>
<path id="Layer0_127_FILL_1_" class="st3" d="M686,2686h12v-12h-12V2686z"/>
<path id="Layer0_129_FILL_1_" class="st3" d="M722,2686h12v-12h-12V2686z"/>
<path id="Layer0_130_FILL_1_" class="st3" d="M746,2674h12v-12h-12V2674z"/>
<path id="Layer0_131_FILL_1_" class="st92" d="M734,2686h12v-12h-12V2686z"/>
<path id="Layer0_132_FILL_1_" class="st23" d="M698,2698h24v-12h-24V2698z"/>
<path id="Layer0_162_FILL_1_" class="st0" d="M662,2758h12v-12h-12V2758z"/>
<path id="Layer0_163_FILL_1_" class="st0" d="M674,2794h12v-36h-12V2794z"/>
<path id="Layer0_165_FILL_1_" class="st8" d="M662,2746h12v-36h-12V2746z"/>
<path id="Layer0_239_FILL_1_" class="st0" d="M951,2553h60v-12h-60V2553z"/>
<path id="Layer0_241_FILL_1_" class="st8" d="M1011,2553h36v-12h-36V2553z"/>
<path id="Layer0_29_FILL_3_" class="st23" d="M602,2553h84v-12h-84V2553z"/>
<path class="st1" d="M638,2541h36v12h-36V2541z"/>
<path id="Layer0_5_FILL_2_" class="st8" d="M674,2577h12v-36h-12V2577z"/>
<path id="Layer0_40_FILL_3_" d="M602,2553h-12v-12h12V2553z"/>
<path id="Layer0_35_FILL_3_" class="st89" d="M590,2553h-24v-12h24V2553z"/>
<path id="Layer0_158_FILL_2_" class="st8" d="M686,2698h-12v12h12V2698z"/>
<path id="Layer0_240_FILL_1_" class="st1" d="M963,2553h12v-12h-12V2553z"/>
<path id="Layer0_164_FILL_1_" class="st1" d="M674,2782h12v-12h-12V2782z"/>
<path id="Layer0_50_FILL_1_" class="st1" d="M734,2589h12v-12h-12V2589z"/>
<path id="Layer0_57_FILL_1_" class="st92" d="M770,2529h12v-12h-12V2529z"/>
<path class="st8" d="M698,2469h36v24h-36V2469z"/>
<path class="st0" d="M686,2614h48v60h-48V2614z"/>
<path class="st6" d="M734,2602v-12h-48v12h-12v60h12v-36h12v-12h36v12h12v-24"/>
<path class="st8" d="M698,2626h36v24h-36V2626z"/>
<path class="st0" d="M1059,2457h48v60h-48V2457z"/>
<path class="st6" d="M1107,2445v-12h-48v12h-12v60h12v-36h12v-12h36v12h12v-24"/>
<path class="st8" d="M1071,2469h36v24h-36V2469z"/>
<path class="st93" d="M438,3014h24v12h-24V3014z M510,3014h24v12h-24V3014z M582,3014h24v12h-24V3014z M654,3014h24v12h-24V3014z
	 M726,3014h24v12h-24V3014z"/>
<path class="st94" d="M428,2820v-8h-8v8H428"/>
<path class="st93" d="M474,3074v12h12v-12H474 M498,3062h-12v12h12V3062 M558,3074h-12v12h12V3074 M570,3062h-12v12h12V3062
	 M762,3086h12v-12h-12V3086 M786,3062h-12v12h12V3062 M702,3074h-12v12h12V3074 M714,3074v-12h-12v12H714 M198,3086v-12h-12v12H198
	 M198,3074h12v-12h-12V3074 M630,3086v-12h-12v12H630 M630,3074h12v-12h-12V3074 M396,2856h-12v12h12V2856 M408,2844h-12v12h12V2844
	 M336,2856h-12v12h12V2856 M264,2826h-12v12h12V2826 M240,2814v12h12v-12H240"/>
<path class="st95" d="M72,2860H48v36h24V2860"/>
<path class="st93" d="M120,2892h-12v36h12V2892 M138,2904h12v-12h-12V2904 M162,2904h-12v24h12V2904 M228,2904h-12v24h12V2904
	 M216,2892h-12v12h12V2892 M414,3074h-12v12h12V3074 M426,3074v-12h-12v12H426 M270,3074h-12v12h12V3074 M282,3074v-12h-12v12H282
	 M342,3086v-12h-12v12H342 M354,3074v-12h-12v12H354 M296,2904v12h12v-12H296 M296,2892h-12v12h12V2892 M144,2814h-12v12h12V2814
	 M144,2826h12v12h-12V2826z"/>
<path class="st96" d="M384,2868v-12h-24v12H384"/>
<path class="st97" d="M108,2884H84v-12H72v24H60v-12H48v24H36v12H24v72h72v-24h12V2884"/>
<path class="st93" d="M486,3062v-12h-12v12H486 M462,3026v24h12v-24H462 M546,3050v12h12v-12H546 M546,3026h-12v24h12V3026
	 M774,3050h-12v12h12V3050 M750,3026v24h12v-24H750 M702,3050h-12v12h12V3050 M678,3050h12v-24h-12V3050 M198,3050h-12v12h12V3050
	 M174,3026v24h12v-24H174 M150,3014h24v12h-24V3014z M222,3014h24v12h-24V3014z M294,3014h24v12h-24V3014z M366,3014h24v12h-24V3014
	z M630,3050h-12v12h12V3050 M606,3026v24h12v-24H606 M420,2820h-12v24h12V2820 M396,2808v12h12v-12H396 M396,2796h-12v12h12V2796
	 M372,2784v4h12v-4H372 M348,2856v-24h-12v24H348 M360,2808h-12v24h12V2808 M336,2796v12h12v-12H336 M288,2802h-12v12h12V2802
	 M264,2814v12h12v-12H264 M292,2802v-12h-4v12H292"/>
<path class="st95" d="M12,2920H0v96h12V2920"/>
<path class="st93" d="M108,2928v60h12v-60H108 M162,2928h-12v12h12V2928 M174,2988v-48h-12v48H174 M240,2940h-12v36h12V2940
	 M216,2940h12v-12h-12V2940 M414,3050h-12v12h12V3050 M390,3026v24h12v-24H390 M258,3050v-24h-12v24H258 M270,3050h-12v12h12V3050
	 M342,3050h-12v12h12V3050 M330,3026h-12v24h12V3026 M308,2904v12h12v-12H308 M332,2928v-12h-12v12H332 M332,2936v4h12v-4H332
	 M192,2838v-12h-36v12H192 M192,2822h12v4h-12V2822z"/>
<path class="st98" d="M450,3018h-8v8h8V3018 M522,3026v-8h-8v8H522 M730,3026h8v-8h-8V3026 M658,3026h8v-8h-8V3026 M594,3026v-8h-8
	v8H594 M370,3018h8v8h-8V3018z"/>
<path class="st99" d="M442,3018h-16v8h16V3018 M514,3018h-16v8h16V3018 M730,3026v-8h-16v8H730 M658,3018h-16v8h16V3018 M162,3026
	v-8h-24v8H162 M586,3018h-16v8h16V3018 M372,2788v8h24v-8H372 M336,2796h-8v12h8V2796 M336,2784v12h8v-12H336 M292,2790v24h8v-24
	H292 M136,2976h-16v8h16V2976"/>
<path class="st93" d="M452,2892h-12v36h12V2892 M440,2928v60h12v-60H440"/>
<path class="st99" d="M468,2976h-16v8h16V2976"/>
<path class="st94" d="M476,2820v-8h-8v8H476 M484,2812v-8h-8v8H484"/>
<path class="st93" d="M500,2892h-12v36h12V2892 M488,2928v60h12v-60H488"/>
<path class="st99" d="M516,2976h-16v8h16V2976"/>
<path class="st94" d="M524,2820v-8h-8v8H524 M532,2812v-8h-8v8H532 M540,2804v-8h-8v8H540"/>
<path class="st93" d="M548,2892h-12v36h12V2892 M536,2928v60h12v-60H536"/>
<path class="st99" d="M564,2976h-16v8h16V2976"/>
<path class="st94" d="M572,2812v-8h-8v8H572 M580,2804v-8h-8v8H580"/>
<path class="st93" d="M588,2892h-12v36h12V2892 M576,2928v60h12v-60H576"/>
<path class="st99" d="M604,2976h-16v8h16V2976"/>
<path class="st94" d="M612,2804v-8h-8v8H612"/>
<path class="st93" d="M620,2892h-12v36h12V2892"/>
<path class="st97" d="M474,3074h-24v12h24V3074 M546,3086v-12h-24v12H546 M738,3074v12h24v-12H738 M666,3074v12h24v-12H666
	 M186,3086v-12h-24v12H186 M618,3086v-12h-24v12H618 M300,2832v12h12v-12H300 M324,2856v-12h-12v12H324 M240,2814v-12h-12v12H240
	 M228,2790h-12v12h12V2790 M108,2892h12v-24h-12V2892 M150,2892v-24h-12v24H150 M204,2880v-12h-12v12H204 M204,2892h12v-12h-12V2892
	 M402,3086v-12h-24v12H402 M234,3074v12h24v-12H234 M330,3086v-12h-24v12H330 M260,2880h12v-12h-12V2880 M284,2892v-12h-12v12H284
	 M120,2802v-12h-12v12H120 M120,2802h12v12h-12V2802z M440,2892h12v-24h-12V2892 M488,2892h12v-24h-12V2892 M536,2892h12v-24h-12
	V2892 M576,2892h12v-24h-12V2892 M608,2892h12v-24h-12V2892"/>
<path class="st93" d="M608,2928v60h12v-60H608"/>
<path class="st99" d="M636,2976h-16v8h16V2976 M192,2976h-18v8h18V2976 M240,2968h-4v8h22v-8H240 M370,3026v-8h-16v8H370 M210,3018
	v8h16v-8H210 M298,3018h-16v8h16V3018 M332,2936h12v-8h-12V2936 M344,2936v8h12v-8H344 M192,2814h24v8h-24V2814z"/>
<path class="st88" d="M442,3010v8h8v-8H442 M522,3002h-8v16h8V3002 M666,2994h-8v16h8V2994 M738,2994h-8v8h8V2994 M594,3018v-24h-8
	v24"/>
<path class="st100" d="M96,3124H84v12h12V3124 M36,3124H24v12h12V3124z"/>
<path class="st101" d="M48,2992v12h36v120h12v-132H48z"/>
<path class="st102" d="M36,3004h12v-12H24v132h12V3004z"/>
<path class="st103" d="M36,2884H12v12H0v24h12v48h12v-48h12v-12h12v-36H36V2884z"/>
<path class="st93" d="M84,2800v-12H60v12H48v60h48v-60"/>
<path class="st104" d="M234,3018h-8v8h8V3018z"/>
<path class="st105" d="M298,3018v8h8v-8H298z"/>
<path class="st106" d="M48,2800v12h12v-12H48 M84,2800v12h12v-12H84 M60,2788h24v12H60V2788z"/>
<path class="st107" d="M792,3108h-12v12h12V3108 M744,3120v12h36v-12H744 M924,3120h-12v12h12V3120 M900,3096h-12v12h12V3096
	 M900,3108v12h12v-12H900 M876,3096h12v-12h-12V3096 M732,3108v12h12v-12H732 M696,2964v-12h-24v12H696 M708,2952v-12h-12v12H708
	 M864,2928v24h12v-24H864 M720,2940v-12h-12v12H720 M732,2916h-12v12h12V2916 M768,2940v-24h-12v24H768 M780,2880v12h12v-12H780
	 M780,2892h-12v24h12V2892 M756,2820h-12v12h12V2820 M768,2856h12v-12h-12V2856 M756,2844h12v-12h-12V2844 M960,3120v-12h-12v12H960
	 M972,3120h-12v12h12V3120 M936,3096v12h12v-12H936 M924,3096h12v-12h-12V3096 M948,3024h-36v12h36V3024 M912,3012h-12v12h12V3012
	 M792,2868v-12h-12v12H792 M708,2844v-12h-12v12H708 M744,2856h-12v12h12V2856 M732,2856v-12h-24v12H732 M660,2856v-24h-12v24H660
	 M672,2796h-12v36h12V2796 M672,2796h12v60h-12V2796z"/>
<path class="st108" d="M888,3068h-12v16h12V3068 M720,3108v12h12v-12H720 M660,2976h12v-12h-12V2976 M864,2952v12h12v-12H864
	 M768,2940h-12v12h12V2940 M756,2820v-12h-12v12H756 M936,3072h-12v12h12V3072 M900,3000h-12v12h12V3000 M684,2820v12h12v-12H684
	 M660,2856h-12v12h12V2856 M672,2856h12v12h-12V2856z"/>
<path class="st109" d="M888,3056v12h12v-12H888 M912,3040h-12v16h12 M684,3096v12h24v-12H684 M708,3108v12h12v-12H708 M648,2976h-12
	v12h12V2976 M648,2964v12h12v-12H648 M744,2952v24h12v-24H744 M732,2988h12v-12h-12V2988 M768,2796h-12v12h12V2796 M780,2796v-12
	h-12v12H780"/>
<path class="st107" d="M984,3084h-12v12h12V3084 M996,3120h12v-12h-12V3120 M984,3108h12v-12h-12V3108 M1020,3132v-12h-12v12H1020"
	/>
<path class="st108" d="M984,3084v-12h-12v12H984"/>
<path class="st109" d="M996,3060h-12v12h12V3060 M1008,3060v-12h-12v12H1008 M948,3072v-12h-12v12H948 M960,3044h-12v16h12V3044
	 M888,3000v-36h-12v36H888 M708,2808h-12v12h12V2808 M732,2808v-12h-24v12H732 M648,2868h-12v48h12V2868 M672,2868h12v48h-12V2868z"
	/>
<path class="st110" d="M804,3132v-12h-12v12H804 M864,3132v-12h-12v12H864z"/>
<path class="st111" d="M864,2964v48h12v-48H864 M816,2856v36h12v-12h12v-24"/>
<path class="st112" d="M864,2976h-24v24h12v120h12V2976z"/>
<path class="st113" d="M792,2976v144h12v-120h36v-24H792z"/>
<path class="st114" d="M864,2892v-12h-12v-12h-12v12h-12v12h-12v-24h-12v12h-12v96h72v-48h12v-36"/>
<path class="st115" d="M792,2832v24h48v-24H792z"/>
<path class="st116" d="M828,2808v-12h-36v36h48v-24H828z"/>
<path class="st25" d="M840,2784v-4h-12v4h-12v-4h-12v4h-12v12h36v12h12v36h12v-12h4v-12h-4v-12h4v-12h-4v-12H840z"/>
<path class="st117" d="M712,2868h20v20h-20V2868z M684,2868h20v20h-20V2868z"/>
<path d="M684,2868v20h20v-12h8v12h20v-12h12v-8H684z M700,2884h-12v-12h12V2884z M728,2884h-12v-12h12V2884z"/>
<path class="st118" d="M804,2880h-12v96h12V2880 M828,2892h-12v84h12V2892"/>
<path class="st119" d="M840,2868h12v108h-12V2868z"/>
<path class="st104" d="M1100,2850v-4h-8v4H1100 M1092,3026v2h4v-2H1092 M1100,2950h-8v8h8V2950 M1178,2848v-4h-4v4H1178 M1148,2996
	h8v4h-8V2996z M1202,2932h4v2h-4V2932z"/>
<path class="st120" d="M1092,3132v-24h-12v24H1092 M1032,3132h12v-24h-12V3132z"/>
<path class="st93" d="M1044,3060h-12v48h12V3060 M1092,3060h-12v48h12V3060 M1112,3076v-12h-12v12H1112 M1112,3076v12h24v-12H1112
	 M1148,3076v-12h-12v12H1148 M1116,3024h12v-12h-12V3024 M1128,2976h12v36h-12V2976z M1116,2988h-12v24h12V2988 M1056,2868h36v36
	h-36V2868z M1044,2916h36v24h-36V2916z M1116,2920v12h12v-12H1116 M1140,2896v12h12v-12H1140 M1152,2884v12h12v-12H1152 M1140,2908
	h-12v12h12V2908 M1116,2884h-12v36h12V2884 M1172,3046v12h24v-12H1172 M1172,3034h-12v12h12V3034 M1208,3034h-12v12h12V3034
	 M1220,2994h-12v48h12V2994 M1222,2994h24v-12h-24V2994 M1220,3054h36v-12h-36V3054 M1210,2982h12v-12h-12V2982 M1246,2982h12v-12
	h-12V2982 M1234,2954h12v16h-12V2954z M1194,2918v12h48v-12H1194 M1182,2882h12v36h-12V2882z"/>
<path class="st95" d="M1044,3060v-12h-12v12H1044 M1092,3060v-12h-12v12H1092 M1032,2928h-12v96h12V2928 M1056,2904v12h12v-12H1056
	 M1174,2946h16v12h-16V2946z"/>
<path class="st121" d="M1142,2972v-8h2v-2h-2v-4h-2v-2h-2v-2h-8v2h-2v2h-2v4h-2v2h2v8h6v12h16v-12"/>
<path class="st122" d="M1134,2932h-2v32h2V2932"/>
<path class="st123" d="M1092,2868v-12h-12v-12h-36v12h-12v48h12v12h12v-48H1092z"/>
<path class="st121" d="M1170,2866v-2h-2v-2h-8v2h-2v2h-2v4h-2v2h2v20h16v-20h2v-2h-2v-4H1170"/>
<path class="st124" d="M1160,2872v16h8v-16H1160"/>
<path class="st122" d="M1164,2844h-2v28h2V2844"/>
<path class="st121" d="M1252,2900v-2h-2v-2h-8v2h-2v2h-2v4h-2v2h2v20h16v-20h2v-2h-2v-4H1252"/>
<path class="st124" d="M1242,2906v16h8v-16H1242"/>
<path class="st122" d="M1246,2878h-2v28h2V2878"/>
<path class="st121" d="M1254,2954v-4h-4v-4h-4v-4h-4v-4h-4v-8h-12v4h-4v12h8v4h4v4h4v4h4v4h4v4h4v-4h4v-4h4v-4"/>
<path class="st122" d="M1238,2946v-2h-6v2H1238 M1232,2942h-6v2h6V2942 M1220,2942h6v-2h-6V2942 M1214,2938v2h6v-2H1214 M1208,2936
	v2h6v-2H1208 M1202,2934v2h6v-2H1202"/>
<path class="st124" d="M1250,2954v-4h-4v-4h-12v4h4v4h4v4h4v4h4v-4h4v-4H1250"/>
<path class="st121" d="M1266,3024v-2h-2v-2h-8v2h-2v2h-2v4h-2v2h2v20h16v-20h2v-2h-2v-4H1266"/>
<path class="st124" d="M1256,3030v16h8v-16H1256"/>
<path class="st122" d="M1260,3002h-2v28h2V3002"/>
<path class="st93" d="M1184,3018h12v16h-12V3018z"/>
<path class="st121" d="M1204,3018v-4h-4v-4h-4v-4h-4v-4h-4v-8h-12v4h-4v12h8v4h4v4h4v4h4v4h4v4h4v-4h4v-4h4v-4"/>
<path class="st122" d="M1188,3010v-2h-6v2H1188 M1182,3006h-6v2h6V3006 M1170,3006h6v-2h-6V3006 M1164,3002v2h6v-2H1164 M1158,3000
	v2h6v-2H1158 M1152,2998v2h6v-2H1152"/>
<path class="st124" d="M1200,3018v-4h-4v-4h-12v4h4v4h4v4h4v4h4v-4h4v-4H1200"/>
<path class="st93" d="M1124,3048h12v16h-12V3048z"/>
<path class="st121" d="M1144,3048v-4h-4v-4h-4v-4h-4v-4h-4v-8h-12v4h-4v12h8v4h4v4h4v4h4v4h4v4h4v-4h4v-4h4v-4"/>
<path class="st122" d="M1128,3040v-2h-6v2H1128 M1122,3036h-6v2h6V3036 M1110,3036h6v-2h-6V3036 M1104,3032v2h6v-2H1104 M1098,3030
	v2h6v-2H1098 M1092,3028v2h6v-2H1092"/>
<path class="st124" d="M1140,3048v-4h-4v-4h-12v4h4v4h4v4h4v4h4v-4h4v-4H1140 M1130,2964h8v8h-8V2964z M1136,2972h8v8h-8V2972z"/>
<path class="st36" d="M1032,2916v132h12v-60h48v-24h-48v-48H1032"/>
<path class="st125" d="M1090,3026h-8v8h8V3026 M1058,3002v8h8v-8H1058 M1066,2962v-8h-8v8H1066 M1090,2930h-8v8h8V2930 M1034,3026v8
	h8v-8H1034 M1034,2978v8h8v-8H1034 M1090,2978h-8v8h8V2978 M1034,2930v8h8v-8H1034z"/>
<path d="M1280,2752h-8v40h20v-32h-12V2752z"/>
<path class="st126" d="M1408,2868h-24v36h12v-12h12 M1372,2916h-12v84h12V2916 M1372,2904h12v12h-12V2904z"/>
<path class="st1" d="M1324,2784h12v48h-12V2784z"/>
<path class="st127" d="M1336,2868h48v24h-48V2868z M1312,2916h-12v84h12V2916 M1324,2904h12v-12h-12V2904 M1312,2904h12v12h-12V2904
	z"/>
<path class="st1" d="M1396,2772v-12h-12v12h-12v12h-12v-24h-12v12h-12v108h24v-12h12v12h36v-108"/>
<path class="st128" d="M1444,2828h-12v48h12V2828 M1516,2864h-12v12h12V2864 M1516,2804h12v-12h-12V2804 M1492,2864h12v-36h-12V2864
	 M1516,2900v48h12v-48H1516 M1400,3096v-12h-12v12H1400 M1424,2960v48h12v-48H1424 M1424,3012h-12v48h12V3012 M1388,3036v12h12v-12
	H1388 M1492,2720h12v-48h-12V2720 M1516,2732h12v24h-12V2732z"/>
<path class="st3" d="M1384,2748h-24v36h12v-12h12 M1408,2780v12h12v-12H1408 M1516,2888v-12h-36v12H1516 M1420,2912h-12v12h12V2912
	 M1432,2888v12h48v-12h-24v-12h-12v12H1432 M1432,2900h-12v12h12V2900 M1468,2816v12h12v-12H1468 M1444,2804v-12h-24v12H1444
	 M1444,2804v12h24v-12H1444 M1456,2936v12h48v-12H1456 M1528,2948h-24v12h24V2948 M1292,3084v-12h-20v12H1292 M1316,3096v-12h-24v12
	H1316 M1352,3108h-12v12h12V3108 M1316,3096v12h24v-12H1316 M1400,3072v60h12v-60H1400 M1424,3008v52h-12v12h12v8h12v-72H1424
	 M1352,3060h-12v12h12V3060 M1316,3060h24v-12h-24V3060 M1292,3036v-12h-12v12H1292 M1292,3036v12h24v-12H1292 M1280,3012h-8v12h8
	V3012 M1492,2720h-24v12h24V2720 M1444,2708v-12h-36v12H1444 M1444,2708v12h24v-12H1444 M1432,2744h-12v12h12V2744 M1420,2744v-12
	h-12v12H1420 M1480,2768h-24v12h24V2768 M1492,2768v-12h-12v12H1492 M1432,2756h24v12h-24V2756z"/>
<path class="st6" d="M1372,3000h-12v12h12V3000 M1300,3000h12v12h-12V3000z"/>
<path class="st93" d="M1312,2832v12h12v-12H1312 M1312,2820h-12v12h12V2820 M1288,2808v12h12v-12H1288 M1288,2784h-12v24h12V2784
	 M1336,2688h48v60h-48V2688z"/>
<path class="st129" d="M1372,2688v12h12v36h12v-60h-48v-4h-12v16H1372z"/>
<path class="st130" d="M1492,2816h-12v12h12V2816 M1492,2804v12h24v-12H1492 M1364,3120v-12h-12v12H1364 M1364,3108h24v-12h-24V3108
	 M1364,3060h-12v12h12V3060 M1364,3060h24v-12h-24V3060 M1492,2756h24v12h-24V2756z"/>
<path class="st128" d="M1372,2784h-12v84h12V2784 M1348,2772h-12v108h12V2772 M1396,2760h-12v120h12V2760"/>
<path class="st0" d="M408,1540h48v60h-48V1540z"/>
<path class="st8" d="M420,1552h36v24h-36V1552z"/>
<path class="st6" d="M420,1540h36v12h12v-24h-12v-12h-48v12h-12v60h12v-36h12V1540"/>
<path class="st3" d="M432,1612v-12h-24v12H432"/>
<path class="st0" d="M240,1540h48v60h-48V1540z"/>
<path class="st8" d="M252,1552h36v24h-36V1552z"/>
<path class="st6" d="M252,1540h36v12h12v-24h-12v-12h-48v12h-12v60h12v-36h12V1540"/>
<path class="st3" d="M264,1612v-12h-24v12H264"/>
<path class="st0" d="M48,1540h48v60H48V1540z"/>
<path class="st8" d="M60,1552h36v24H60V1552z"/>
<path class="st6" d="M60,1540h36v12h12v-24H96v-12H48v12H36v60h12v-36h12V1540"/>
<path class="st3" d="M72,1612v-12H48v12H72"/>
<path class="st0" d="M552,1540h48v60h-48V1540z"/>
<path class="st8" d="M564,1552h36v24h-36V1552z"/>
<path class="st6" d="M564,1540h36v12h12v-24h-12v-12h-48v12h-12v60h12v-36h12V1540"/>
<path class="st3" d="M576,1612v-12h-24v12H576"/>
<path class="st0" d="M744,1540h48v60h-48V1540z"/>
<path class="st8" d="M756,1552h36v24h-36V1552z"/>
<path class="st6" d="M756,1540h36v12h12v-24h-12v-12h-48v12h-12v60h12v-36h12V1540"/>
<path class="st3" d="M768,1612v-12h-24v12H768"/>
<path class="st0" d="M876,1540h48v60h-48V1540z"/>
<path class="st8" d="M888,1552h36v24h-36V1552z"/>
<path class="st6" d="M888,1540h36v12h12v-24h-12v-12h-48v12h-12v60h12v-36h12V1540"/>
<path class="st3" d="M900,1612v-12h-24v12H900"/>
<path class="st0" d="M972,1540h48v60h-48V1540z"/>
<path class="st8" d="M984,1552h36v24h-36V1552z"/>
<path class="st6" d="M984,1540h36v12h12v-24h-12v-12h-48v12h-12v60h12v-36h12V1540"/>
<path class="st3" d="M996,1612v-12h-24v12H996"/>
<path class="st0" d="M1080,1540h48v60h-48V1540z"/>
<path class="st8" d="M1092,1552h36v24h-36V1552z"/>
<path class="st6" d="M1092,1540h36v12h12v-24h-12v-12h-48v12h-12v60h12v-36h12V1540"/>
<path class="st3" d="M1104,1612v-12h-24v12H1104"/>
<path class="st0" d="M1752,1144h48v60h-48V1144z"/>
<path class="st8" d="M1764,1156h36v24h-36V1156z"/>
<path class="st6" d="M1764,1144h36v12h12v-24h-12v-12h-48v12h-12v60h12v-36h12V1144"/>
<path class="st3" d="M1776,1216v-12h-24v12H1776"/>
<g>
	<path class="st0" d="M1584,1144h48v60h-48V1144z"/>
	<path class="st8" d="M1596,1156h36v24h-36V1156z"/>
	<path class="st6" d="M1596,1144h36v12h12v-24h-12v-12h-48v12h-12v60h12v-36h12V1144"/>
	<path class="st3" d="M1608,1216v-12h-24v12H1608"/>
</g>
<g>
	<path class="st0" d="M1464,1168h48v60h-48V1168z"/>
	<path class="st8" d="M1476,1180h36v24h-36V1180z"/>
	<path class="st6" d="M1476,1168h36v12h12v-24h-12v-12h-48v12h-12v60h12v-36h12V1168"/>
	<path class="st3" d="M1488,1240v-12h-24v12H1488"/>
</g>
<g>
	<path class="st0" d="M1296,1144h48v60h-48V1144z"/>
	<path class="st8" d="M1308,1156h36v24h-36V1156z"/>
	<path class="st6" d="M1308,1144h36v12h12v-24h-12v-12h-48v12h-12v60h12v-36h12V1144"/>
	<path class="st3" d="M1320,1216v-12h-24v12H1320"/>
</g>
<g>
	<path class="st0" d="M1104,1144h48v60h-48V1144z"/>
	<path class="st8" d="M1116,1156h36v24h-36V1156z"/>
	<path class="st6" d="M1116,1144h36v12h12v-24h-12v-12h-48v12h-12v60h12v-36h12V1144"/>
	<path class="st3" d="M1128,1216v-12h-24v12H1128"/>
</g>
<g>
	<path class="st0" d="M924,1144h48v60h-48V1144z"/>
	<path class="st8" d="M936,1156h36v24h-36V1156z"/>
	<path class="st6" d="M936,1144h36v12h12v-24h-12v-12h-48v12h-12v60h12v-36h12V1144"/>
	<path class="st3" d="M948,1216v-12h-24v12H948"/>
</g>
<g>
	<path class="st0" d="M780,1144h48v60h-48V1144z"/>
	<path class="st8" d="M792,1156h36v24h-36V1156z"/>
	<path class="st6" d="M792,1144h36v12h12v-24h-12v-12h-48v12h-12v60h12v-36h12V1144"/>
	<path class="st3" d="M804,1216v-12h-24v12H804"/>
</g>
<g>
	<path class="st0" d="M660,1144h48v60h-48V1144z"/>
	<path class="st8" d="M672,1156h36v24h-36V1156z"/>
	<path class="st6" d="M672,1144h36v12h12v-24h-12v-12h-48v12h-12v60h12v-36h12V1144"/>
	<path class="st3" d="M684,1216v-12h-24v12H684"/>
</g>
<g>
	<path class="st0" d="M564,1144h48v60h-48V1144z"/>
	<path class="st8" d="M576,1156h36v24h-36V1156z"/>
	<path class="st6" d="M576,1144h36v12h12v-24h-12v-12h-48v12h-12v60h12v-36h12V1144"/>
	<path class="st3" d="M588,1216v-12h-24v12H588"/>
</g>
<g>
	<path class="st0" d="M696,768h48v60h-48V768z"/>
	<path class="st8" d="M708,780h36v24h-36V780z"/>
	<path class="st6" d="M708,768h36v12h12v-24h-12v-12h-48v12h-12v60h12v-36h12V768"/>
	<path class="st3" d="M720,840v-12h-24v12H720"/>
</g>
<g>
	<path class="st0" d="M852,768h48v60h-48V768z"/>
	<path class="st8" d="M864,780h36v24h-36V780z"/>
	<path class="st6" d="M864,768h36v12h12v-24h-12v-12h-48v12h-12v60h12v-36h12V768"/>
	<path class="st3" d="M876,840v-12h-24v12H876"/>
</g>
<g>
	<path class="st0" d="M1020,768h48v60h-48V768z"/>
	<path class="st8" d="M1032,780h36v24h-36V780z"/>
	<path class="st6" d="M1032,768h36v12h12v-24h-12v-12h-48v12h-12v60h12v-36h12V768"/>
	<path class="st3" d="M1044,840v-12h-24v12H1044"/>
</g>
<g>
	<path class="st0" d="M1212,768h48v60h-48V768z"/>
	<path class="st8" d="M1224,780h36v24h-36V780z"/>
	<path class="st6" d="M1224,768h36v12h12v-24h-12v-12h-48v12h-12v60h12v-36h12V768"/>
	<path class="st3" d="M1236,840v-12h-24v12H1236"/>
</g>
<g>
	<path class="st0" d="M1392,768h48v60h-48V768z"/>
	<path class="st8" d="M1404,780h36v24h-36V780z"/>
	<path class="st6" d="M1404,768h36v12h12v-24h-12v-12h-48v12h-12v60h12v-36h12V768"/>
	<path class="st3" d="M1416,840v-12h-24v12H1416"/>
</g>
<g>
	<path class="st0" d="M1536,768h48v60h-48V768z"/>
	<path class="st8" d="M1548,780h36v24h-36V780z"/>
	<path class="st6" d="M1548,768h36v12h12v-24h-12v-12h-48v12h-12v60h12v-36h12V768"/>
	<path class="st3" d="M1560,840v-12h-24v12H1560"/>
</g>
<g>
	<path class="st0" d="M1656,768h48v60h-48V768z"/>
	<path class="st8" d="M1668,780h36v24h-36V780z"/>
	<path class="st6" d="M1668,768h36v12h12v-24h-12v-12h-48v12h-12v60h12v-36h12V768"/>
	<path class="st3" d="M1680,840v-12h-24v12H1680"/>
</g>
<g>
	<path class="st0" d="M1752,768h48v60h-48V768z"/>
	<path class="st6" d="M1764,768h36v12h12v-24h-12v-12h-48v12h-12v60h12v-36h12V768"/>
	<path class="st3" d="M1776,840v-12h-24v12H1776"/>
</g>
<g>
	<path class="st0" d="M1920,768h48v60h-48V768z"/>
	<path class="st6" d="M1932,768h36v12h12v-24h-12v-12h-48v12h-12v60h12v-36h12V768"/>
	<path class="st3" d="M1944,840v-12h-24v12H1944"/>
</g>
<g>
	<path class="st0" d="M468,1144h48v60h-48V1144z"/>
	<path class="st8" d="M480,1156h36v24h-36V1156z"/>
	<path class="st6" d="M480,1144h36v12h12v-24h-12v-12h-48v12h-12v60h12v-36h12V1144"/>
	<path class="st3" d="M492,1216v-12h-24v12H492"/>
</g>
<g>
	<path class="st0" d="M372,1144h48v60h-48V1144z"/>
	<path class="st8" d="M384,1156h36v24h-36V1156z"/>
	<path class="st6" d="M384,1144h36v12h12v-24h-12v-12h-48v12h-12v60h12v-36h12V1144"/>
	<path class="st3" d="M396,1216v-12h-24v12H396"/>
</g>
<g>
	<path class="st0" d="M276,1144h48v60h-48V1144z"/>
	<path class="st6" d="M288,1144h36v12h12v-24h-12v-12h-48v12h-12v60h12v-36h12V1144"/>
	<path class="st3" d="M300,1216v-12h-24v12H300"/>
</g>
<g>
	<path class="st0" d="M168,1144h48v60h-48V1144z"/>
	<path class="st6" d="M180,1144h36v12h12v-24h-12v-12h-48v12h-12v60h12v-36h12V1144"/>
	<path class="st3" d="M192,1216v-12h-24v12H192"/>
</g>
<g>
	<path class="st0" d="M72,1144h48v60H72V1144z"/>
	<path class="st6" d="M84,1144h36v12h12v-24h-12v-12H72v12H60v60h12v-36h12V1144"/>
	<path class="st3" d="M96,1216v-12H72v12H96"/>
</g>
<g>
	<path class="st0" d="M36,768h48v60H36V768z"/>
	<path class="st6" d="M48,768h36v12h12v-24H84v-12H36v12H24v60h12v-36h12V768"/>
	<path class="st3" d="M60,840v-12H36v12H60"/>
</g>
<g>
	<path class="st0" d="M240,768h48v60h-48V768z"/>
	<path class="st6" d="M252,768h36v12h12v-24h-12v-12h-48v12h-12v60h12v-36h12V768"/>
	<path class="st3" d="M264,840v-12h-24v12H264"/>
</g>
<g>
	<path class="st0" d="M408,768h48v60h-48V768z"/>
	<path class="st6" d="M420,768h36v12h12v-24h-12v-12h-48v12h-12v60h12v-36h12V768"/>
	<path class="st3" d="M432,840v-12h-24v12H432"/>
</g>
<path class="st131" d="M2052,864v-12h-12v96h24v-84"/>
<path class="st132" d="M2064,912v-12h-12v12H2064 M2052,924h-12v12h12V924 M2052,864h-12v12h12V864z"/>
<g>
	<path class="st133" d="M2064,828h12v12h-12V828z M2064,852h24v12h-24V852z M2064,876h24v12h-24V876z M2064,900h24v12h-24V900z
		 M2064,924h24v12h-24V924z M2064,948h24v12h-24V948z M2028,828h12v12h-12V828z M2016,852h24v12h-24V852z M2016,876h24v12h-24V876z
		 M2016,900h24v12h-24V900z M2016,924h24v12h-24V924z M2016,948h24v12h-24V948z"/>
</g>
<path class="st43" d="M2088,960h12v12h-12V960z"/>
<path class="st6" d="M1676,1516v-12h-36v12h-12v48h12v-36h12v-12H1676"/>
<path class="st134" d="M1652,1552v12h12v-12H1652z"/>
<path class="st135" d="M1652,1564v12h12v-12H1652z M1676,1516v12h12v-12H1676z"/>
<path class="st43" d="M1640,1648h-12v24h12V1648"/>
<path class="st136" d="M1628,1600h-12v96h12V1600z"/>
<path class="st3" d="M2004,1648h12v12h-12V1648z"/>
<path class="st137" d="M2100,1720h-12v12h12V1720z"/>
<path class="st25" d="M2004,1708v24h12v-24H2004"/>
<path class="st138" d="M1992,1624h-12v12h12V1624 M2040,1624h-12v12h12V1624 M2112,1624v-12h-12v-12h-36v12h24v24h12v-12H2112
	 M2040,1552h-36v36h-12v36h12v12h12v-12h12v-12h12V1552 M2016,1516v12h12v12h12v12h12v-24h24v12h12v24h12v-48h-12v-12h-60v12H2016z"
	/>
<g>
	<path class="st0" d="M1750,1528h48v60h-48V1528z"/>
	<path class="st6" d="M1762,1528h36v12h12v-24h-12v-12h-48v12h-12v60h12v-36h12V1528"/>
	<path class="st3" d="M1774,1600v-12h-24v12H1774"/>
</g>
<g>
	<path class="st1" d="M992,1648h12v24h-12V1648z M980,1648h12v-12h-24v48h24v-12h-12"/>
</g>
<g>
	<path class="st1" d="M896,1648h12v24h-12V1648z M884,1648h12v-12h-24v48h24v-12h-12"/>
</g>
<g>
	<path class="st1" d="M764,1648h12v24h-12V1648z M752,1648h12v-12h-24v48h24v-12h-12"/>
</g>
<g>
	<path class="st1" d="M570,1648h12v24h-12V1648z M558,1648h12v-12h-24v48h24v-12h-12"/>
</g>
<g>
	<path class="st1" d="M426,1648h12v24h-12V1648z M414,1648h12v-12h-24v48h24v-12h-12"/>
</g>
<g>
	<path class="st1" d="M258,1648h12v24h-12V1648z M246,1648h12v-12h-24v48h24v-12h-12"/>
</g>
<g>
	<path class="st1" d="M66,1648h12v24H66V1648z M54,1648h12v-12H42v48h24v-12H54"/>
</g>
<g>
	<path class="st1" d="M390,1252h12v24h-12V1252z M378,1252h12v-12h-24v48h24v-12h-12"/>
</g>
<g>
	<path class="st1" d="M486,1252h12v24h-12V1252z M474,1252h12v-12h-24v48h24v-12h-12"/>
</g>
<g>
	<path class="st1" d="M582,1252h12v24h-12V1252z M570,1252h12v-12h-24v48h24v-12h-12"/>
</g>
<g>
	<path class="st1" d="M678,1252h12v24h-12V1252z M666,1252h12v-12h-24v48h24v-12h-12"/>
</g>
<g>
	<path class="st1" d="M798,1252h12v24h-12V1252z M786,1252h12v-12h-24v48h24v-12h-12"/>
</g>
<g>
	<path class="st1" d="M942,1252h12v24h-12V1252z M930,1252h12v-12h-24v48h24v-12h-12"/>
</g>
<g>
	<path class="st1" d="M1122,1252h12v24h-12V1252z M1110,1252h12v-12h-24v48h24v-12h-12"/>
</g>
<g>
	<path class="st1" d="M1314,1252h12v24h-12V1252z M1302,1252h12v-12h-24v48h24v-12h-12"/>
</g>
<g>
	<path class="st1" d="M1482,1276h12v24h-12V1276z M1470,1276h12v-12h-24v48h24v-12h-12"/>
</g>
<g>
	<path class="st1" d="M1602,1252h12v24h-12V1252z M1590,1252h12v-12h-24v48h24v-12h-12"/>
</g>
<g>
	<path class="st1" d="M1770,1252h12v24h-12V1252z M1758,1252h12v-12h-24v48h24v-12h-12"/>
</g>
<path d="M2010,2373h-12v24h12V2373 M1962,2241h-24v156h12v-144h12"/>
<path class="st3" d="M1938,2265v-12h-12v12H1938"/>
<path class="st0" d="M2010,2253v12h12v-12H2010"/>
<path class="st25" d="M2010,2241h-48v12h36v120h12V2241z"/>
<path class="st36" d="M2022,2133h-12v120h12V2133 M1962,2121h-24v120h24V2121"/>
<path class="st139" d="M1962,2133h-12v12h12V2133 M1986,2133v-12h-24v12H1986z"/>
<path class="st1" d="M1938,2133h-12v120h12V2133 M1964,2155v-8h8v8H1964 M1988,2183h8v8h-8V2183 M1988,2155v-8h8v8H1988 M1964,2183
	h8v8h-8V2183 M1972,2219v8h-8v-8H1972 M1988,2227v-8h8v8H1988 M1998,2001v-12h-36v12h-24v24h12v24h60v-24h12v-24"/>
<path class="st3" d="M1986,2121v-12h-24v12H1986z"/>
<path class="st140" d="M1988,2219v8h8v-8H1988 M1972,2227v-8h-8v8H1972 M1972,2183h-8v8h8V2183 M1988,2147v8h8v-8H1988 M1996,2183
	h-8v8h8V2183 M1964,2147v8h8v-8H1964z"/>
<path class="st6" d="M1974,2061v-12h-24v48h12v-36H1974 M2022,2049h-12v12h12V2049z"/>
<path class="st36" d="M1950,2025h24v24h-24V2025z"/>
<path class="st141" d="M1848,1952h168v12h-168V1952z"/>
<path class="st142" d="M1848,1964h168v24h-168V1964z"/>
<path d="M2106,2385h-12v12h12V2385 M2046,2385h-12v12h12V2385z"/>
<path class="st143" d="M2046,2385v-24h-12v24H2046 M2094,2361v24h12v-24H2094z"/>
<path class="st3" d="M2034,2241h-12v24h12V2241"/>
<path class="st0" d="M2118,2241h-12v24h12V2241"/>
<path class="st144" d="M2058,2229h-24v132h12v-108h12V2229z"/>
<path class="st145" d="M2106,2229h-48v24h36v108h12V2229z"/>
<path class="st146" d="M2034,2133h-12v108h12V2133"/>
<g>
	<path class="st147" d="M2034,2121h24v120h-24V2121z M2106,2133h12v108h-12V2133z"/>
</g>
<path class="st146" d="M2082,2121h24v120h-24V2121z"/>
<path class="st3" d="M2082,2109h-24v36h12v12h12V2109z"/>
<path class="st148" d="M2046,2013v-12h-12v12H2046 M2106,2037v-12h-12v-12h-12v-12h-12v12h-24v12h-12v12h-12v12h12v12h12v36h12v-36
	h12v-24H2106z"/>
<path class="st128" d="M2070,2157v-12h-12v84h24v-72"/>
<path class="st149" d="M2082,2217h-12v12h12V2217 M2070,2169h12v-12h-12V2169 M2058,2181v12h12v-12H2058z"/>
<path class="st150" d="M2094,2121h-12v48h12v-12h12v-24h-12 M2058,2121h-12v12h-12v24h12v12h12"/>
</svg>
